<svg width="64" height="21" viewBox="0 0 64 21" fill="none" xmlns="http://www.w3.org/2000/svg">
<g clip-path="url(#clip0_7_338)">
<path d="M14.0994 10.4314C14.0994 15.7843 11.0584 20.3137 7.3262 20.3137C3.59402 20.3137 0.552979 15.9216 0.552979 10.4314C0.552979 5.07844 3.59402 0.686279 7.3262 0.686279C11.0584 0.686279 14.0994 5.07844 14.0994 10.4314Z" fill="#FF647A"/>
<path d="M14.0994 10.4314C14.0994 15.7843 11.0584 20.3137 7.3262 20.3137C3.59402 20.3137 0.552979 15.9216 0.552979 10.4314C0.552979 5.07844 3.59402 0.686279 7.3262 0.686279C11.0584 0.686279 14.0994 5.07844 14.0994 10.4314Z" stroke="black" stroke-miterlimit="10"/>
<path d="M38.566 10.4314C38.566 15.7843 35.5249 20.3137 31.7927 20.3137C28.0606 20.3137 25.0195 15.9216 25.0195 10.4314C25.0195 5.07844 28.0606 0.686279 31.7927 0.686279C35.5249 0.686279 38.566 5.07844 38.566 10.4314Z" fill="#ECFF66"/>
<path d="M38.566 10.4314C38.566 15.7843 35.5249 20.3137 31.7927 20.3137C28.0606 20.3137 25.0195 15.9216 25.0195 10.4314C25.0195 5.07844 28.0606 0.686279 31.7927 0.686279C35.5249 0.686279 38.566 5.07844 38.566 10.4314Z" stroke="black" stroke-miterlimit="10"/>
<path d="M63.3089 10.4314C63.3089 15.7843 60.2679 20.3137 56.5357 20.3137C52.8035 20.3137 49.7625 15.9216 49.7625 10.4314C49.7625 5.07844 52.8035 0.686279 56.5357 0.686279C60.2679 0.686279 63.3089 5.07844 63.3089 10.4314Z" fill="#75FF66"/>
<path d="M63.3089 10.4314C63.3089 15.7843 60.2679 20.3137 56.5357 20.3137C52.8035 20.3137 49.7625 15.9216 49.7625 10.4314C49.7625 5.07844 52.8035 0.686279 56.5357 0.686279C60.2679 0.686279 63.3089 5.07844 63.3089 10.4314Z" stroke="black" stroke-miterlimit="10"/>
</g>
<defs>
<clipPath id="clip0_7_338">
<rect width="64" height="21" fill="white"/>
</clipPath>
</defs>
</svg>
