<svg width="19" height="20" viewBox="0 0 19 20" fill="none" xmlns="http://www.w3.org/2000/svg">
<g clip-path="url(#clip0_12_362)">
<path d="M18.7934 18.6042L14.0679 13.63C15.3557 11.9722 15.9888 9.85675 15.8364 7.72131C15.684 5.58587 14.7576 3.59378 13.249 2.15711C11.7404 0.720433 9.76489 -0.050916 7.73114 0.00261049C5.69739 0.056137 3.76098 0.930443 2.32245 2.44468C0.883921 3.95893 0.0533302 5.99725 0.00247997 8.13804C-0.0483702 10.2788 0.684411 12.3583 2.04925 13.9463C3.41409 15.5344 5.30657 16.5094 7.33524 16.6699C9.36391 16.8303 11.3736 16.1639 12.9485 14.8083L17.674 19.7825C17.8233 19.9343 18.0233 20.0183 18.2308 20.0164C18.4384 20.0145 18.637 19.9269 18.7837 19.7724C18.9305 19.6179 19.0138 19.4088 19.0156 19.1903C19.0174 18.9718 18.9376 18.7613 18.7934 18.6042ZM7.94201 15.0267C6.68939 15.0267 5.46491 14.6357 4.4234 13.9031C3.38188 13.1706 2.57012 12.1294 2.09077 10.9112C1.61141 9.69306 1.48599 8.35261 1.73037 7.05941C1.97474 5.7662 2.57793 4.57831 3.46366 3.64596C4.3494 2.71361 5.47789 2.07867 6.70644 1.82144C7.93498 1.5642 9.2084 1.69623 10.3657 2.20081C11.5229 2.70539 12.5121 3.55988 13.208 4.65621C13.9039 5.75253 14.2753 7.04147 14.2753 8.36001C14.2735 10.1275 13.6056 11.822 12.4183 13.0719C11.2309 14.3217 9.62113 15.0247 7.94201 15.0267Z" fill="white"/>
</g>
<defs>
<clipPath id="clip0_12_362">
<rect width="19" height="20" fill="white"/>
</clipPath>
</defs>
</svg>
