<svg width="159" height="62" viewBox="0 0 159 62" fill="none" xmlns="http://www.w3.org/2000/svg">
<path d="M153.974 0H141.017C139.137 0 137.499 1.06177 136.624 2.61651C134.428 2.61651 132.231 2.61651 130.053 2.61651C129.606 2.61651 129.16 2.65443 128.657 2.71132C127.633 2.82508 126.702 3.16636 125.902 3.71621C125.753 3.62141 125.604 3.50765 125.455 3.4318C124.897 3.10948 124.264 2.88196 123.594 2.74924C123.128 2.65443 122.644 2.61651 122.067 2.61651C120.485 2.61651 118.884 2.61651 117.302 2.61651C115.459 2.61651 113.616 2.61651 111.773 2.61651C111.233 2.61651 110.749 2.65443 110.284 2.73028C109.185 2.90092 108.236 3.31804 107.454 3.92477C106.747 3.37492 105.909 2.99572 104.96 2.80612C104.345 2.69235 103.731 2.61651 103.098 2.61651C101.814 2.61651 100.436 2.61651 98.9282 2.61651C97.5135 2.61651 96.0801 2.61651 94.6653 2.61651C94.2558 2.61651 93.7159 2.63547 93.1202 2.73028C92.1522 2.90092 91.3145 3.22324 90.6072 3.71621C90.1045 3.35596 89.5275 3.09052 88.9132 2.91988C88.2058 2.71131 87.4239 2.61651 86.549 2.61651C85.3204 2.61651 84.0359 2.59755 82.4723 2.59755C81.1692 2.59755 79.8847 2.59755 78.5817 2.59755H78.0977C77.5206 2.59755 77.0366 2.63547 76.5712 2.71132C75.4357 2.90092 74.4677 3.31804 73.6858 3.96269C73.2018 4.36086 72.7923 4.83486 72.4758 5.36575C70.2606 5.8208 68.6783 7.28073 68.1385 9.40428C68.0826 9.6318 68.0268 9.85933 67.9895 10.0869C67.9895 9.87829 67.9895 9.68869 67.9895 9.48012C67.9895 8.87339 67.9523 8.28563 67.8592 7.71682C67.6731 6.56025 67.2449 5.55535 66.5934 4.74006C65.886 3.84893 64.8808 3.20428 63.7266 2.863C63.0378 2.65443 62.3118 2.55963 61.5858 2.55963C60.9902 2.55963 60.3945 2.63547 59.7988 2.7682C58.7377 3.01468 57.8069 3.46972 57.0809 4.15229C56.7086 4.49358 56.3736 4.9107 56.1129 5.34679C56.0757 5.36575 56.0199 5.36575 55.964 5.38471C55.8896 5.40367 55.8151 5.42263 55.722 5.44159C55.5917 5.21407 55.4428 4.98654 55.2753 4.79694C54.4003 3.69725 53.1717 2.97676 51.7197 2.73028C51.273 2.65443 50.8076 2.61651 50.3236 2.61651C49.7837 2.61651 49.2067 2.67339 48.6296 2.74924C47.494 2.91988 46.4888 3.41284 45.707 4.15229C45.6697 4.19021 45.6139 4.22813 45.5767 4.28502C45.1485 3.94373 44.6831 3.64037 44.1805 3.37492C42.7099 2.63547 41.2021 2.55963 40.1968 2.55963H36.3248C34.9287 2.55963 33.5325 2.55963 32.155 2.55963C31.5965 2.55963 31.1125 2.59755 30.6658 2.67339C29.6978 2.82508 28.8415 3.16636 28.1155 3.65933C28.041 3.62141 27.9852 3.56453 27.9107 3.52661C27.2778 3.12844 26.5704 2.84404 25.8072 2.69235C25.1184 2.55963 24.4669 2.54067 24.0387 2.54067H18.119C15.5687 2.54067 13.0184 2.54067 10.4681 2.54067C10.0028 2.54067 9.50014 2.57859 8.99753 2.63547C7.63861 2.78716 6.42861 3.337 5.51646 4.24709C5.18138 4.56942 4.88354 4.94862 4.64154 5.34679C2.12847 5.87768 0.341397 7.83058 0.118013 10.4092C-0.0122943 11.9829 -0.0309097 13.5566 0.0435517 15.0544C0.21109 18.145 2.22155 20.2306 5.27446 20.515C5.88877 20.5719 6.48446 20.5908 7.04292 20.5908V28.6489C7.04292 34.0526 7.04292 39.4563 7.04292 44.841C7.04292 44.8979 7.04292 44.9358 7.04292 44.9927C7.04292 45.2771 7.04292 45.6373 7.08015 46.0165C7.17322 46.8887 7.45246 49.5621 10.04 50.9272C10.9708 51.4202 12.0318 51.6856 13.186 51.6856C13.5955 51.6856 14.0051 51.6477 14.4518 51.5908C16.1086 51.3633 17.4489 50.567 18.3238 49.3346H18.3424C19.571 49.1639 20.6321 48.7089 21.4698 47.9694C21.6932 47.7798 21.898 47.5523 22.1027 47.3248C22.382 48.4624 22.959 49.4294 23.7595 50.1498C23.6292 50.6807 23.5733 51.2495 23.5733 51.8373V56.7291C23.5733 59.63 25.2115 62 27.2219 62H125.25C127.261 62 128.899 59.63 128.899 56.7291V51.8373C128.899 51.2685 128.843 50.7187 128.713 50.2067C129.011 50.4722 129.346 50.6997 129.737 50.9083C130.686 51.4202 131.728 51.6667 132.864 51.6667C133.255 51.6667 133.664 51.6287 134.093 51.5719C136.084 51.2875 137.294 50.3584 138.039 49.2966C138.672 49.2018 139.249 49.0312 139.77 48.8037C140.72 48.3865 141.501 47.7609 142.079 46.9456C142.6 46.2061 142.935 45.3339 143.121 44.2911C143.251 43.6086 143.27 42.9639 143.27 42.4709C143.27 40.1957 143.27 37.9205 143.27 35.6453C143.27 35.6453 143.27 21.8612 143.27 19.8514C144.07 19.4532 144.722 18.8844 145.206 18.1829C146.509 18.0122 147.645 17.5003 148.501 16.6661C149.487 15.737 150.065 14.4667 150.195 13.0067C150.251 12.2862 150.307 11.5847 150.307 10.9021H153.955C156.729 10.9021 159 8.60795 159 5.78287V5.08135C159.019 2.29419 156.766 0 153.974 0Z" fill="#FFFF1D"/>
<path d="M24.895 28.2887C24.895 22.7902 24.895 17.2728 24.9136 11.7743C24.9136 11.1676 24.9881 10.5229 25.1556 9.93517C25.4907 8.68379 26.4029 8.03914 27.6315 7.83058C27.9666 7.7737 28.3202 7.75474 28.6739 7.75474C31.3545 7.75474 34.0352 7.75474 36.7158 7.75474C37.6651 7.75474 38.5959 7.84954 39.4522 8.28563C41.0159 9.063 41.7233 10.4281 41.9281 12.1156C41.9839 12.5706 42.0025 13.0446 42.0025 13.5187C42.0025 23.378 42.0211 33.2563 42.0025 43.1156C42.0025 43.9119 41.9094 44.7462 41.7233 45.5046C41.2207 47.4196 39.899 48.4624 38.0002 48.7468C37.5907 48.8037 37.1625 48.8416 36.753 48.8416C34.0538 48.8416 31.3732 48.8416 28.6739 48.8416C28.2458 48.8416 27.799 48.8226 27.3895 48.7278C26.0678 48.4245 25.2301 47.4954 25.0439 46.1303C24.9881 45.6752 24.9509 45.2202 24.9509 44.7841C24.895 39.2667 24.895 33.7682 24.895 28.2887ZM32.1178 18.3346V38.2049C32.5832 38.2049 33.0113 38.2239 33.4395 38.2049C34.0352 38.167 34.4819 37.8447 34.6308 37.2569C34.7425 36.8208 34.7984 36.3657 34.7984 35.9107C34.817 30.8294 34.817 25.748 34.7984 20.6667C34.7984 20.1927 34.7239 19.7187 34.6122 19.2446C34.5005 18.8086 34.1655 18.5052 33.7187 18.4483C33.1975 18.3725 32.6576 18.3725 32.1178 18.3346Z" fill="black"/>
<path d="M122.123 36.8587C122.123 39.5321 122.142 42.2055 122.104 44.8789C122.086 45.6183 121.974 46.3957 121.713 47.0593C121.211 48.3486 120.075 48.7847 118.809 48.8037C116.482 48.8416 114.156 48.8226 111.81 48.8226C110.451 48.8226 109.074 48.8226 107.715 48.8226C106.784 48.8037 105.946 48.5193 105.332 47.7798C104.811 47.1352 104.569 46.3578 104.55 45.5425C104.531 42.2245 104.531 38.9254 104.55 35.6073C104.55 34.3939 105.108 33.882 106.3 33.882C107.51 33.882 108.72 33.882 109.948 33.882C111.103 33.882 111.605 34.3749 111.68 35.5315C111.698 35.9297 111.717 36.3278 111.754 36.726C111.829 37.6171 112.35 38.167 113.169 38.2239C114.118 38.2997 114.677 37.8636 114.882 36.9346C114.919 36.8018 114.937 36.6502 114.937 36.5174C114.937 35.2092 114.956 33.9199 114.937 32.6116C114.919 31.7015 114.546 31.1327 113.876 30.981C113.597 30.9052 113.299 30.9052 113.001 30.9052C111.27 30.8862 109.539 30.9242 107.808 30.8673C105.779 30.8104 104.662 29.6349 104.569 27.5872C104.55 27.0563 104.55 26.5064 104.55 25.9755C104.55 21.2544 104.55 16.5523 104.55 11.8312C104.55 11.2245 104.606 10.5798 104.755 9.99205C105.071 8.72171 105.983 8.0581 107.231 7.84954C107.566 7.79266 107.919 7.7737 108.273 7.7737C111.698 7.7737 115.142 7.7737 118.567 7.7737C119.256 7.7737 119.926 7.84954 120.541 8.20979C121.658 8.85443 121.993 9.93517 122.086 11.1486C122.123 11.5657 122.104 12.0018 122.104 12.419C122.104 15.0734 122.104 17.7468 122.104 20.4012C122.104 20.8373 122.048 21.2734 121.955 21.7095C121.806 22.3731 121.397 22.7144 120.745 22.7333C119.312 22.7713 117.879 22.7713 116.445 22.7523C115.552 22.7333 115.105 22.2593 115.012 21.3492C114.956 20.9132 114.956 20.4771 114.919 20.041C114.826 18.8465 114.1 18.2587 112.927 18.4673C112.257 18.581 111.791 19.0361 111.754 19.8135C111.698 21.3303 111.698 22.8471 111.754 24.345C111.791 25.274 112.368 25.7291 113.374 25.767C114.062 25.7859 114.77 25.767 115.459 25.767C116.929 25.767 118.381 25.767 119.852 25.7859C121.118 25.8049 121.862 26.5064 122.03 27.7957C122.067 28.137 122.104 28.4783 122.104 28.8006C122.142 31.455 122.123 34.1664 122.123 36.8587Z" fill="black"/>
<path d="M43.1381 28.2697C43.1381 22.7713 43.1381 17.2917 43.1381 11.7933C43.1381 11.1865 43.1939 10.5798 43.3428 9.99205C43.6221 8.83547 44.4039 8.09602 45.558 7.90642C46.284 7.79266 47.0473 7.75474 47.7547 7.8685C49.2997 8.13395 50.2305 9.30948 50.2677 10.9969C50.305 13.1584 50.2863 15.3199 50.305 17.5003C50.305 18.7896 50.2863 20.0789 50.3608 21.3682C50.3794 21.8422 50.547 22.3541 50.789 22.7523C51.273 23.5297 52.092 23.5486 52.8925 23.4349C53.5999 23.3211 54.0839 22.8661 54.27 22.1835C54.3817 21.8232 54.4376 21.4251 54.4376 21.0648C54.4562 17.9743 54.4376 14.9028 54.4562 11.8122C54.4562 11.2055 54.5306 10.5988 54.6796 10.011C54.9588 8.83547 55.7593 8.17187 56.8948 7.90642C57.7325 7.71682 58.5888 7.71682 59.4265 7.9633C60.6737 8.32355 61.3439 9.23364 61.53 10.504C61.6045 10.9401 61.6231 11.3761 61.6231 11.8122C61.6231 22.8281 61.6231 33.8251 61.6231 44.841C61.6231 45.2581 61.5859 45.6563 61.53 46.0734C61.3439 47.6281 60.4131 48.6141 58.8866 48.7847C58.2537 48.8605 57.6022 48.8606 56.9692 48.7658C55.5545 48.5382 54.6796 47.4954 54.512 45.9407C54.4562 45.5235 54.4376 45.0875 54.4376 44.6703C54.4189 41.7315 54.4376 38.7737 54.4189 35.8349C54.4189 35.0954 54.27 34.3939 53.6371 33.9009C52.9483 33.37 52.1665 33.389 51.4033 33.6734C50.64 33.9578 50.4166 34.6593 50.3236 35.3988C50.2677 35.7969 50.2677 36.2141 50.2677 36.6312C50.2677 39.5131 50.2863 42.4141 50.2491 45.296C50.2119 48.1401 48.4434 49.0881 46.0793 48.8416C44.1805 48.633 43.1939 47.5333 43.1008 45.5804C43.0636 44.9168 43.0822 44.2532 43.0822 43.5896C43.1381 38.4514 43.1381 33.3511 43.1381 28.2697Z" fill="black"/>
<path d="M87.3867 28.2697C87.3867 22.7713 87.3867 17.2917 87.4053 11.7933C87.4053 11.1676 87.4984 10.5229 87.6473 9.91621C87.9824 8.66483 88.8759 8.03914 90.0859 7.83058C90.4396 7.7737 90.8119 7.75474 91.1656 7.75474C93.9765 7.75474 96.7688 7.75474 99.5798 7.75474C100.027 7.75474 100.473 7.79266 100.901 7.88746C102.093 8.13394 102.912 8.85443 103.154 10.0679C103.508 11.8312 103.526 13.6324 103.154 15.3768C102.837 16.8936 101.758 17.652 100.027 17.7278C98.9282 17.7657 97.8299 17.7468 96.713 17.7468C96.471 17.7468 96.2476 17.7468 96.0056 17.7657C95.1307 17.8226 94.5722 18.3535 94.5536 19.2636C94.535 20.5719 94.535 21.8991 94.5536 23.2073C94.5722 24.1364 95.1493 24.7052 96.1173 24.7242C97.3831 24.7431 98.649 24.7242 99.9334 24.7431C100.25 24.7431 100.566 24.781 100.883 24.8379C101.739 24.9706 102.298 25.4636 102.484 26.3168C102.782 27.682 102.782 29.0661 102.502 30.4502C102.335 31.3034 101.776 31.8153 100.92 31.9101C100.25 31.9859 99.5611 32.0239 98.8724 32.0239C97.9416 32.0428 97.0108 32.0239 96.0614 32.0428C95.1307 32.0618 94.5536 32.6116 94.535 33.5407C94.5164 34.8679 94.5164 36.1951 94.535 37.5413C94.5536 38.4324 95.0748 39.0012 95.9684 39.0391C97.3831 39.096 98.8165 39.0581 100.231 39.115C101.237 39.1529 102.205 39.4563 102.726 40.4043C103.005 40.9162 103.228 41.5419 103.247 42.1107C103.321 43.381 103.321 44.6703 103.21 45.9217C103.042 47.7988 101.888 48.8416 100.045 48.8606C96.8991 48.8985 93.7718 48.8985 90.6258 48.8606C88.6525 48.8416 87.4798 47.6281 87.3495 45.5804C87.3309 45.296 87.3309 45.0116 87.3309 44.7272C87.3867 39.2098 87.3867 33.7303 87.3867 28.2697Z" fill="black"/>
<path d="M70.8377 28.2508C70.8377 22.7902 70.8377 17.3297 70.8563 11.8691C70.8563 11.2245 70.9307 10.5609 71.0797 9.93517C71.3961 8.66483 72.3083 8.02018 73.5369 7.83058C73.8906 7.7737 74.2629 7.75474 74.6166 7.75474C77.4275 7.75474 80.2198 7.73578 83.0307 7.75474C83.5706 7.75474 84.129 7.81162 84.6316 7.9633C85.9533 8.34251 86.7538 9.49908 86.7724 11.0159C86.791 12.0966 86.791 13.1584 86.7724 14.2391C86.7352 16.4006 85.5624 17.633 83.4216 17.7089C82.2489 17.7468 81.0761 17.7278 79.9033 17.7278C79.6427 17.7278 79.3635 17.7278 79.1215 17.7847C78.5072 17.9174 78.079 18.3156 78.0604 18.9413C78.0232 20.4581 78.0046 21.9749 78.0604 23.4728C78.0976 24.2122 78.712 24.6673 79.5869 24.6862C80.7224 24.7052 81.8766 24.6862 83.0121 24.7052C83.4216 24.7052 83.8498 24.7242 84.2593 24.8C85.2459 24.9517 85.823 25.5584 85.9906 26.5443C86.1953 27.7578 86.1953 28.9713 85.9906 30.1847C85.823 31.1896 85.3204 31.7205 84.3338 31.8722C83.8498 31.948 83.3658 31.9859 82.8818 31.9859C81.7463 32.0049 80.5921 31.9859 79.4566 32.0049C78.6747 32.0239 78.1535 32.4979 78.0418 33.2752C78.0046 33.5407 77.986 33.8061 77.986 34.0716C77.986 37.8636 77.986 41.6557 77.9487 45.4477C77.9301 47.0783 77.1855 48.2159 75.8638 48.5761C75.175 48.7658 74.4118 48.8226 73.7231 48.7468C71.8801 48.5193 70.9494 47.4385 70.8563 45.5425C70.8377 45.0875 70.8191 44.6324 70.8191 44.1774C70.8377 38.9064 70.8377 33.5786 70.8377 28.2508Z" fill="black"/>
<path d="M17.2627 32.441C17.2627 36.5743 17.2627 40.7076 17.2627 44.841C17.2627 45.3908 17.2069 45.9407 17.0766 46.4716C16.7415 47.8367 15.848 48.5761 14.4891 48.7658C13.5211 48.8985 12.5717 48.8605 11.6781 48.3865C10.5612 47.7988 10.2448 46.718 10.1144 45.5615C10.0772 45.2581 10.0958 44.9737 10.0958 44.6703C10.0958 36.4226 10.0958 28.1749 10.0958 19.9272C10.0958 19.7376 10.0958 19.5291 10.0958 19.3394C10.04 18.3156 9.53737 17.8037 8.51353 17.7657C7.65722 17.7278 6.7823 17.7658 5.926 17.6899C4.19477 17.5193 3.18954 16.5333 3.09647 14.77C3.02201 13.348 3.04062 11.907 3.17093 10.485C3.30124 8.98716 4.36231 8.00122 5.83292 7.83058C6.22384 7.79266 6.61476 7.75474 7.00569 7.75474C11.5292 7.75474 16.0527 7.75474 20.5763 7.75474C21.414 7.75474 22.233 7.83058 22.959 8.30459C23.8712 8.87339 24.2807 9.78349 24.3179 10.8073C24.3738 12.2294 24.3924 13.6703 24.2621 15.0924C24.1318 16.6281 23.1266 17.5193 21.6187 17.6899C20.9486 17.7658 20.2784 17.7468 19.6083 17.7657C19.3477 17.7657 19.087 17.7658 18.8078 17.7847C17.9143 17.8226 17.393 18.3156 17.3186 19.2257C17.3 19.4343 17.3 19.6428 17.3 19.8703C17.2627 24.0416 17.2627 28.2508 17.2627 32.441Z" fill="black"/>
<path d="M136.941 32.441C136.941 36.5554 136.941 40.6697 136.941 44.8031C136.941 45.2391 136.922 45.6752 136.848 46.1113C136.55 47.7419 135.712 48.5572 134.093 48.7847C133.143 48.9174 132.231 48.8606 131.356 48.4055C130.221 47.7988 129.904 46.718 129.774 45.5425C129.737 45.2581 129.755 44.9737 129.755 44.6893C129.755 36.4226 129.755 28.156 129.755 19.8893C129.755 19.6997 129.755 19.5291 129.755 19.3394C129.699 18.2966 129.197 17.7847 128.173 17.7468C127.317 17.7089 126.442 17.7468 125.585 17.6709C123.836 17.5003 122.849 16.5333 122.737 14.7511C122.663 13.3291 122.681 11.8881 122.812 10.4661C122.942 8.9682 124.003 7.98226 125.474 7.81162C125.827 7.7737 126.2 7.73578 126.553 7.73578C131.096 7.73578 135.619 7.73578 140.161 7.73578C140.589 7.73578 141.036 7.75474 141.446 7.84954C142.953 8.17187 143.791 9.04404 143.921 10.7884C144.033 12.2104 144.015 13.6514 143.884 15.0734C143.735 16.6281 142.749 17.5193 141.204 17.6709C140.552 17.7278 139.901 17.7278 139.249 17.7468C138.988 17.7468 138.728 17.7468 138.449 17.7657C137.536 17.8037 137.034 18.2966 136.941 19.2067C136.922 19.4153 136.922 19.6239 136.922 19.8514C136.941 24.0226 136.941 28.2318 136.941 32.441Z" fill="black"/>
<path d="M28.767 25.8428C28.767 20.3443 28.767 14.8269 28.7856 9.32844C28.7856 8.72171 28.8601 8.07706 29.0276 7.4893C29.3627 6.23792 30.2749 5.59327 31.5035 5.38471C31.8385 5.32783 32.1922 5.30887 32.5459 5.30887C35.2265 5.30887 37.9071 5.30887 40.5877 5.30887C41.5371 5.30887 42.4679 5.40367 43.3242 5.83976C44.8879 6.61713 45.5953 7.98226 45.8 9.66972C45.8559 10.1248 45.8745 10.5988 45.8745 11.0728C45.8745 20.9321 45.8931 30.8104 45.8745 40.6697C45.8745 41.4661 45.7814 42.3003 45.5953 43.0587C45.0927 44.9737 43.771 46.0165 41.8722 46.3009C41.4627 46.3578 41.0345 46.3957 40.625 46.3957C37.9258 46.3957 35.2452 46.3957 32.5459 46.3957C32.1178 46.3957 31.671 46.3768 31.2615 46.282C29.9398 45.9786 29.1021 45.0495 28.9159 43.6844C28.8601 43.2294 28.8229 42.7743 28.8229 42.3382C28.767 36.8208 28.767 31.3413 28.767 25.8428ZM35.9898 15.8887V35.759C36.4551 35.759 36.8833 35.778 37.3115 35.759C37.9071 35.7211 38.3539 35.3988 38.5028 34.811C38.6145 34.3749 38.6704 33.9199 38.6704 33.4648C38.689 28.3835 38.689 23.3021 38.6704 18.2208C38.6704 17.7468 38.5959 17.2728 38.4842 16.7988C38.3725 16.3627 38.0374 16.0593 37.5907 16.0024C37.0695 15.9266 36.5296 15.9266 35.9898 15.8887Z" fill="#FF1F08"/>
<path d="M28.767 25.8428H28.9345C28.9345 23.3401 28.9345 20.8373 28.9345 18.3346C28.9345 15.3388 28.9346 12.3242 28.9532 9.32844C28.9532 8.72171 29.0276 8.11498 29.1765 7.52722C29.3441 6.92049 29.6233 6.50336 30.0142 6.18104C30.4052 5.85872 30.9078 5.66911 31.5035 5.57431C31.8385 5.51743 32.1736 5.49847 32.5087 5.49847C33.9048 5.49847 35.301 5.49847 36.6785 5.49847C37.5535 5.49847 38.447 5.49847 39.3219 5.49847C39.7314 5.49847 40.1224 5.49847 40.5319 5.49847C41.4627 5.49847 42.3562 5.59327 43.1753 6.0104C43.9385 6.3896 44.4597 6.90153 44.8507 7.52722C45.223 8.15291 45.4464 8.89235 45.558 9.70765C45.6139 10.1627 45.6325 10.6177 45.6325 11.0917C45.6325 15.6422 45.6325 20.1927 45.6325 24.7431C45.6325 30.052 45.6325 35.3798 45.6139 40.6887C45.6139 41.4661 45.5208 42.2813 45.3347 43.0398C45.0927 43.9688 44.6645 44.6703 44.0502 45.1823C43.4545 45.6942 42.6727 46.0165 41.7605 46.1682C41.351 46.2251 40.9414 46.263 40.5319 46.263C39.1916 46.263 37.8327 46.263 36.4924 46.263C35.1521 46.263 33.7932 46.263 32.4529 46.263C32.0247 46.263 31.5965 46.244 31.2056 46.1492C30.5727 45.9976 30.0701 45.7132 29.6978 45.296C29.3255 44.8789 29.0835 44.348 28.9904 43.6844C28.9346 43.2483 28.8973 42.7933 28.8973 42.3572C28.8973 39.115 28.8973 35.8728 28.8973 32.6306C28.8973 30.3743 28.8973 28.137 28.8973 25.8807H28.767H28.5809C28.5809 28.137 28.5809 30.3743 28.5809 32.6306C28.5809 35.8728 28.5809 39.115 28.5809 42.3572C28.5809 42.8122 28.6181 43.2862 28.6739 43.7413C28.767 44.4618 29.0462 45.0685 29.4744 45.5425C29.9025 46.0165 30.4796 46.3388 31.1684 46.4905C31.5965 46.5853 32.0619 46.6232 32.4901 46.6232C33.8304 46.6232 35.1893 46.6232 36.5296 46.6232C37.8699 46.6232 39.2288 46.6232 40.5691 46.6232C40.9973 46.6232 41.4254 46.6043 41.835 46.5284C42.803 46.3768 43.6407 46.0355 44.3108 45.4667C44.9624 44.8979 45.4464 44.1395 45.707 43.1535C45.9117 42.3572 46.0048 41.5229 46.0048 40.7266C46.0234 35.4177 46.0234 30.0899 46.0234 24.781C46.0234 20.2306 46.0234 15.6801 46.0234 11.1297C46.0234 10.6557 46.0048 10.1817 45.949 9.70765C45.8373 8.85443 45.6139 8.0581 45.2044 7.37554C44.7948 6.69297 44.1991 6.12416 43.3801 5.72599C42.4865 5.27095 41.5371 5.17615 40.5691 5.17615C40.1596 5.17615 39.7687 5.17615 39.3591 5.17615C38.4842 5.17615 37.5907 5.17615 36.7158 5.17615C35.3196 5.17615 33.9235 5.17615 32.5459 5.17615C32.1922 5.17615 31.8385 5.19511 31.4662 5.25199C30.8333 5.36575 30.2562 5.57431 29.8095 5.93456C29.3627 6.2948 29.0276 6.80673 28.8415 7.47034C28.6739 8.07706 28.5995 8.72171 28.5995 9.36636C28.5809 12.3621 28.5809 15.3768 28.5809 18.3725C28.5809 20.8752 28.5809 23.378 28.5809 25.8807H28.767V25.8428ZM35.9898 15.8887H35.8036V35.9297H35.9898C36.269 35.9297 36.5482 35.9297 36.8088 35.9297C36.9764 35.9297 37.1439 35.9297 37.3115 35.9107C37.6465 35.8917 37.9444 35.7969 38.1678 35.6073C38.4098 35.4177 38.5773 35.1523 38.6518 34.83C38.7635 34.3749 38.8193 33.9009 38.8193 33.4459C38.8193 30.9242 38.8193 28.4024 38.8193 25.8618C38.8193 23.3021 38.8193 20.7615 38.8007 18.2018C38.8007 17.7089 38.7262 17.2159 38.5959 16.7419C38.5401 16.4954 38.4098 16.2679 38.2236 16.1162C38.0374 15.9456 37.8141 15.8508 37.5721 15.8128C37.0322 15.737 36.511 15.737 35.9711 15.6991L35.785 15.6801V15.8697H35.9898L35.9711 16.0404C36.5296 16.0783 37.0508 16.0783 37.5535 16.1541C37.7396 16.192 37.9071 16.2679 38.0374 16.3817C38.1678 16.4954 38.2608 16.6471 38.2981 16.8367C38.4098 17.2917 38.4842 17.7658 38.4842 18.2208C38.4842 20.7804 38.5028 23.3211 38.5028 25.8807C38.5028 28.4024 38.5028 30.9242 38.5028 33.4648C38.5028 33.9009 38.447 34.337 38.3539 34.7541C38.2794 35.0196 38.1678 35.2092 37.9816 35.3419C37.8141 35.4746 37.5907 35.5505 37.3115 35.5694C37.1439 35.5884 36.995 35.5884 36.8275 35.5884C36.5668 35.5884 36.2876 35.5884 36.0084 35.5884V35.759H36.1759V15.8887H35.9898Z" fill="black"/>
<path d="M125.995 34.4318C125.995 37.1052 126.014 39.7786 125.976 42.452C125.958 43.1914 125.846 43.9688 125.585 44.6324C125.083 45.9217 123.947 46.3578 122.681 46.3768C120.354 46.4147 118.028 46.3957 115.682 46.3957C114.323 46.3957 112.946 46.3957 111.587 46.3957C110.656 46.3768 109.818 46.0924 109.204 45.3529C108.683 44.7083 108.441 43.9309 108.422 43.1156C108.403 39.7976 108.403 36.4985 108.422 33.1804C108.422 31.967 108.98 31.455 110.172 31.455C111.382 31.455 112.592 31.455 113.82 31.455C114.975 31.455 115.477 31.948 115.552 33.1046C115.57 33.5028 115.589 33.9009 115.626 34.2991C115.701 35.1902 116.222 35.7401 117.041 35.7969C117.99 35.8728 118.549 35.4367 118.754 34.5076C118.791 34.3749 118.809 34.2232 118.809 34.0905C118.809 32.7823 118.828 31.493 118.809 30.1847C118.791 29.2746 118.418 28.7058 117.748 28.5541C117.469 28.4783 117.171 28.4783 116.873 28.4783C115.142 28.4593 113.411 28.4972 111.68 28.4404C109.651 28.3835 108.534 27.208 108.441 25.1602C108.422 24.6294 108.422 24.0795 108.422 23.5486C108.422 18.8275 108.422 14.1254 108.422 9.40428C108.422 8.79755 108.478 8.15291 108.627 7.56514C108.943 6.2948 109.855 5.63119 111.103 5.42263C111.438 5.36575 111.791 5.34679 112.145 5.34679C115.57 5.34679 119.014 5.34679 122.439 5.34679C123.128 5.34679 123.798 5.42263 124.413 5.78287C125.53 6.42752 125.865 7.50826 125.958 8.72171C125.995 9.13884 125.976 9.57492 125.976 9.99205C125.976 12.6465 125.976 15.3199 125.976 17.9743C125.976 18.4104 125.92 18.8465 125.827 19.2826C125.678 19.9462 125.269 20.2875 124.617 20.3064C123.184 20.3443 121.751 20.3443 120.317 20.3254C119.424 20.3064 118.977 19.8324 118.884 18.9223C118.828 18.4862 118.828 18.0502 118.791 17.6141C118.698 16.4196 117.972 15.8318 116.799 16.0404C116.129 16.1541 115.663 16.6092 115.626 17.3865C115.57 18.9034 115.57 20.4202 115.626 21.918C115.663 22.8471 116.24 23.3021 117.246 23.3401C117.934 23.359 118.642 23.3401 119.331 23.3401C120.801 23.3401 122.253 23.3401 123.724 23.359C124.99 23.378 125.734 24.0795 125.902 25.3688C125.939 25.7101 125.976 26.0514 125.976 26.3737C125.995 29.0281 125.995 31.7205 125.995 34.4318Z" fill="#FF1F08"/>
<path d="M125.995 34.4318H125.809C125.809 35.8917 125.809 37.3706 125.809 38.8306C125.809 40.044 125.809 41.2575 125.79 42.452C125.772 43.1725 125.66 43.9309 125.418 44.5755C125.176 45.1823 124.804 45.5804 124.338 45.8269C123.873 46.0924 123.296 46.2061 122.681 46.2061C121.583 46.2251 120.485 46.2251 119.405 46.2251C118.214 46.2251 117.004 46.2251 115.812 46.2251C115.775 46.2251 115.738 46.2251 115.701 46.2251C115.068 46.2251 114.453 46.2251 113.82 46.2251C113.076 46.2251 112.35 46.2251 111.605 46.2061C111.158 46.2061 110.73 46.1303 110.358 45.9596C109.986 45.8079 109.651 45.5615 109.353 45.2012C108.85 44.5945 108.627 43.855 108.608 43.0777C108.59 41.2575 108.59 39.4373 108.59 37.6171C108.59 36.1193 108.59 34.6404 108.608 33.1425C108.608 32.8581 108.645 32.6116 108.701 32.422C108.757 32.2703 108.813 32.1566 108.887 32.0618C108.999 31.9101 109.167 31.7963 109.371 31.7205C109.576 31.6446 109.837 31.6067 110.172 31.6067C110.768 31.6067 111.382 31.6067 111.978 31.6067C112.592 31.6067 113.206 31.6067 113.82 31.6067C114.1 31.6067 114.323 31.6446 114.509 31.7015C114.658 31.7394 114.77 31.7963 114.863 31.8722C115.012 31.9859 115.124 32.1187 115.198 32.3272C115.272 32.5168 115.328 32.7823 115.347 33.0856C115.366 33.4838 115.384 33.882 115.421 34.2801C115.459 34.7541 115.626 35.1713 115.887 35.4557C116.017 35.6073 116.185 35.7211 116.371 35.7969C116.557 35.8728 116.762 35.9297 116.985 35.9486C117.06 35.9486 117.115 35.9486 117.19 35.9486C117.413 35.9486 117.618 35.9107 117.804 35.8538C118.083 35.759 118.325 35.6073 118.512 35.3609C118.698 35.1333 118.809 34.83 118.884 34.4887C118.921 34.337 118.94 34.1853 118.94 34.0336C118.94 33.2563 118.94 32.4789 118.94 31.7015C118.94 31.1706 118.94 30.6587 118.921 30.1278C118.921 29.6538 118.809 29.2557 118.605 28.9333C118.512 28.7817 118.381 28.6489 118.232 28.5352C118.083 28.4404 117.916 28.3645 117.73 28.3076C117.413 28.2318 117.115 28.2318 116.818 28.2318C116.501 28.2318 116.185 28.2318 115.85 28.2318C115.291 28.2318 114.733 28.2318 114.174 28.2318C113.318 28.2318 112.48 28.2318 111.624 28.1939C111.14 28.1749 110.712 28.0991 110.339 27.9474C109.781 27.7388 109.371 27.3976 109.074 26.9046C108.776 26.4306 108.608 25.8049 108.571 25.0654C108.552 24.6862 108.552 24.307 108.552 23.9468C108.552 23.7951 108.552 23.6434 108.552 23.4917V23.4728C108.552 21.2165 108.552 18.9602 108.552 16.685C108.552 14.2391 108.552 11.7743 108.571 9.32844C108.571 8.72171 108.627 8.09602 108.776 7.52722C108.925 6.92049 109.222 6.46544 109.613 6.14312C110.004 5.8208 110.507 5.61223 111.121 5.51743C111.456 5.46055 111.791 5.44159 112.145 5.44159C113.988 5.44159 115.831 5.44159 117.674 5.44159C119.275 5.44159 120.857 5.44159 122.458 5.44159C122.793 5.44159 123.128 5.46055 123.445 5.51743C123.761 5.57431 124.059 5.66911 124.357 5.83976C124.878 6.14312 125.213 6.54128 125.436 7.01529C125.66 7.4893 125.772 8.03914 125.809 8.62691C125.827 8.87339 125.827 9.11988 125.827 9.38532C125.827 9.55596 125.827 9.70765 125.827 9.87829V9.89725C125.827 11.2245 125.827 12.5517 125.827 13.8789C125.827 15.2061 125.827 16.5333 125.827 17.8605C125.827 18.2777 125.772 18.7138 125.678 19.1119C125.641 19.2636 125.604 19.3963 125.53 19.4911C125.436 19.6618 125.325 19.7755 125.176 19.8514C125.027 19.9272 124.841 19.9841 124.617 19.9841C123.761 20.0031 122.923 20.022 122.067 20.022C121.49 20.022 120.894 20.022 120.317 20.0031C120.112 20.0031 119.945 19.9651 119.796 19.9083C119.573 19.8324 119.424 19.6997 119.293 19.5101C119.163 19.3205 119.089 19.074 119.051 18.7517C118.996 18.3346 118.996 17.8985 118.958 17.4434C118.94 17.159 118.884 16.9125 118.791 16.704C118.66 16.3817 118.456 16.1162 118.195 15.9266C117.934 15.756 117.599 15.6612 117.227 15.6612C117.078 15.6612 116.929 15.6801 116.762 15.6991C116.389 15.756 116.073 15.9266 115.831 16.1731C115.589 16.4385 115.459 16.7798 115.44 17.2159C115.421 17.9933 115.403 18.7896 115.403 19.567C115.403 20.3064 115.421 21.0269 115.44 21.7664C115.459 22.0128 115.496 22.2404 115.589 22.4489C115.719 22.7523 115.943 22.9798 116.222 23.1315C116.501 23.2832 116.836 23.359 117.227 23.359C117.488 23.359 117.767 23.359 118.028 23.359C118.418 23.359 118.809 23.359 119.2 23.359C119.238 23.359 119.275 23.359 119.331 23.359C119.628 23.359 119.908 23.359 120.206 23.359C120.466 23.359 120.727 23.359 120.969 23.359C121.881 23.359 122.793 23.359 123.724 23.378C124.022 23.378 124.282 23.4349 124.524 23.5107C124.878 23.6245 125.139 23.833 125.343 24.1174C125.548 24.4018 125.678 24.7621 125.753 25.2361C125.79 25.5584 125.827 25.8997 125.827 26.222C125.827 27.644 125.827 29.085 125.827 30.507C125.827 31.7774 125.827 33.0477 125.827 34.337H126.162C126.162 33.0667 126.162 31.7963 126.162 30.507C126.162 29.085 126.162 27.644 126.162 26.222C126.162 25.8807 126.125 25.5205 126.088 25.1792C126.051 24.8379 125.958 24.5346 125.827 24.2691C125.641 23.8709 125.362 23.5486 125.008 23.3401C124.655 23.1315 124.226 23.0177 123.724 23.0177C122.812 22.9988 121.881 22.9988 120.969 22.9988C120.708 22.9988 120.448 22.9988 120.206 22.9988C119.908 22.9988 119.628 22.9988 119.331 22.9988C119.293 22.9988 119.238 22.9988 119.2 22.9988C118.809 22.9988 118.418 22.9988 118.028 22.9988C117.767 22.9988 117.506 22.9988 117.227 22.9988C116.985 22.9988 116.78 22.9609 116.613 22.904C116.352 22.8281 116.147 22.6954 116.017 22.5058C115.887 22.3162 115.794 22.0697 115.794 21.7474C115.756 21.0269 115.756 20.2875 115.756 19.567C115.756 18.7896 115.775 18.0122 115.794 17.2349C115.812 16.8746 115.924 16.6092 116.092 16.4196C116.259 16.23 116.501 16.0972 116.818 16.0404C116.966 16.0214 117.097 16.0024 117.227 16.0024C117.432 16.0024 117.618 16.0404 117.786 16.0972C118.028 16.192 118.214 16.3437 118.344 16.5713C118.474 16.7988 118.567 17.0832 118.605 17.4624C118.642 17.8985 118.642 18.3346 118.698 18.7896C118.716 19.0171 118.772 19.2446 118.847 19.4343C118.958 19.7187 119.144 19.9462 119.386 20.0979C119.628 20.2495 119.945 20.3254 120.299 20.3443C120.894 20.3633 121.471 20.3633 122.067 20.3633C122.923 20.3633 123.761 20.3443 124.617 20.3254C124.804 20.3254 124.971 20.2875 125.12 20.2495C125.343 20.1737 125.548 20.041 125.697 19.8514C125.846 19.6618 125.939 19.4342 126.014 19.1688C126.107 18.7327 126.162 18.2777 126.162 17.8226C126.162 16.4954 126.162 15.1682 126.162 13.822C126.162 12.4948 126.162 11.1676 126.162 9.84037V9.82141C126.162 9.65076 126.162 9.49908 126.162 9.32844C126.162 9.063 126.162 8.81651 126.144 8.55107C126.088 7.94434 125.976 7.33762 125.734 6.80673C125.492 6.27584 125.101 5.8208 124.506 5.47951C124.171 5.28991 123.836 5.17615 123.482 5.11927C123.128 5.06239 122.774 5.04343 122.439 5.04343C120.838 5.04343 119.256 5.04343 117.655 5.04343C115.812 5.04343 113.969 5.04343 112.126 5.04343C111.773 5.04343 111.419 5.06239 111.065 5.11927C110.414 5.23303 109.855 5.44159 109.39 5.8208C108.943 6.2 108.608 6.71193 108.441 7.3945C108.292 8.00122 108.236 8.66483 108.217 9.29052C108.217 11.7364 108.199 14.2012 108.199 16.6471C108.199 18.9034 108.199 21.1596 108.199 23.4349V23.4538C108.199 23.6055 108.199 23.7572 108.199 23.9089C108.199 24.2881 108.199 24.6673 108.217 25.0465C108.236 25.5774 108.329 26.0514 108.496 26.4685C108.738 27.0942 109.129 27.6061 109.651 27.9474C110.19 28.2887 110.842 28.4783 111.624 28.4972C112.48 28.5162 113.318 28.5352 114.174 28.5352C114.733 28.5352 115.291 28.5352 115.85 28.5352C116.166 28.5352 116.482 28.5352 116.818 28.5352C117.115 28.5352 117.395 28.5352 117.655 28.611C117.804 28.6489 117.934 28.7058 118.046 28.7817C118.214 28.8954 118.344 29.0661 118.437 29.2746C118.53 29.4832 118.586 29.7486 118.586 30.0709C118.586 30.6018 118.605 31.1138 118.605 31.6446C118.605 32.422 118.605 33.1994 118.605 33.9768C118.605 34.1095 118.586 34.2422 118.567 34.356C118.53 34.5645 118.456 34.7352 118.381 34.8869C118.27 35.1144 118.121 35.2661 117.934 35.3609C117.748 35.4746 117.506 35.5125 117.208 35.5125C117.153 35.5125 117.097 35.5125 117.041 35.5125C116.855 35.4936 116.687 35.4557 116.538 35.3988C116.315 35.304 116.147 35.1523 116.017 34.9627C115.887 34.7541 115.812 34.5076 115.775 34.1853C115.738 33.7872 115.719 33.408 115.701 33.0098C115.682 32.7064 115.626 32.441 115.552 32.2135C115.496 32.0428 115.403 31.8911 115.291 31.7584C115.124 31.5688 114.919 31.4171 114.677 31.3223C114.416 31.2275 114.137 31.1896 113.802 31.1896C113.188 31.1896 112.573 31.1896 111.959 31.1896C111.363 31.1896 110.749 31.1896 110.153 31.1896C109.837 31.1896 109.576 31.2275 109.334 31.3034C109.148 31.3602 108.999 31.4361 108.85 31.5498C108.645 31.7015 108.478 31.9291 108.385 32.1755C108.292 32.441 108.236 32.7443 108.236 33.1046C108.217 34.6024 108.217 36.0813 108.217 37.5792C108.217 39.3994 108.217 41.2196 108.236 43.0398C108.236 43.893 108.496 44.7272 109.055 45.3908C109.371 45.789 109.762 46.0544 110.19 46.244C110.619 46.4147 111.084 46.5095 111.568 46.5095C112.313 46.5095 113.057 46.5284 113.783 46.5284C114.416 46.5284 115.03 46.5284 115.663 46.5284C115.701 46.5284 115.738 46.5284 115.775 46.5284C116.966 46.5284 118.176 46.5284 119.368 46.5284C120.466 46.5284 121.564 46.5284 122.663 46.5095C123.314 46.4905 123.947 46.3768 124.487 46.0924C125.027 45.808 125.474 45.3339 125.734 44.6514C126.014 43.9498 126.125 43.1535 126.144 42.3951C126.162 41.1817 126.162 39.9682 126.162 38.7547C126.162 37.2948 126.162 35.8159 126.162 34.356H125.995V34.4318Z" fill="black"/>
<path d="M47.01 25.8239C47.01 20.3254 47.01 14.8459 47.01 9.3474C47.01 8.74067 47.0659 8.13394 47.2148 7.54618C47.494 6.3896 48.2759 5.65015 49.43 5.46055C50.156 5.34679 50.9193 5.30887 51.6266 5.42263C53.1717 5.68807 54.1025 6.86361 54.1397 8.55107C54.1769 10.7125 54.1583 12.874 54.1769 15.0544C54.1769 16.3437 54.1583 17.633 54.2328 18.9223C54.2514 19.3963 54.4189 19.9083 54.6609 20.3064C55.1449 21.0838 55.964 21.1028 56.7645 20.989C57.4719 20.8752 57.9559 20.4202 58.142 19.7376C58.2537 19.3774 58.3096 18.9792 58.3096 18.619C58.3282 15.5284 58.3096 12.4569 58.3282 9.36636C58.3282 8.75963 58.4026 8.15291 58.5516 7.56514C58.8308 6.3896 59.6312 5.72599 60.7668 5.46055C61.6045 5.27095 62.4608 5.27095 63.2985 5.51743C64.5457 5.87768 65.2158 6.78777 65.402 8.0581C65.4765 8.49419 65.4951 8.93028 65.4951 9.36636C65.4951 20.3823 65.4951 31.3792 65.4951 42.3951C65.4951 42.8122 65.4578 43.2104 65.402 43.6275C65.2158 45.1823 64.2851 46.1682 62.7586 46.3388C62.1257 46.4147 61.4742 46.4147 60.8412 46.3199C59.4265 46.0924 58.5516 45.0495 58.384 43.4948C58.3282 43.0777 58.3096 42.6416 58.3096 42.2245C58.2909 39.2856 58.3096 36.3278 58.2909 33.389C58.2909 32.6495 58.142 31.948 57.5091 31.455C56.8203 30.9242 56.0385 30.9431 55.2753 31.2275C54.512 31.5119 54.2886 32.2135 54.1956 32.9529C54.1397 33.3511 54.1397 33.7682 54.1397 34.1853C54.1397 37.0673 54.1583 39.9682 54.1211 42.8502C54.0839 45.6942 52.3154 46.6422 49.9513 46.3957C48.0525 46.1872 47.0659 45.0875 46.9728 43.1346C46.9356 42.4709 46.9542 41.8073 46.9542 41.1437C47.01 36.0245 47.01 30.9242 47.01 25.8239Z" fill="#FF1F08"/>
<path d="M47.01 25.8239H47.1776C47.1776 23.3401 47.1776 20.8563 47.1776 18.3725C47.1776 15.3578 47.1776 12.3621 47.1962 9.3474C47.1962 8.75963 47.252 8.15291 47.401 7.5841C47.5313 7.03425 47.7919 6.57921 48.127 6.25688C48.4807 5.93456 48.9274 5.70703 49.4673 5.63119C49.8768 5.57431 50.2863 5.53639 50.6959 5.53639C51.0123 5.53639 51.3102 5.55535 51.608 5.61223C52.3526 5.74495 52.9297 6.06728 53.3206 6.57921C53.7302 7.09113 53.9536 7.75474 53.9722 8.57003C53.9908 9.91621 54.0094 11.2624 54.0094 12.6275C54.0094 12.7982 54.0094 12.9688 54.0094 13.1395C54.0094 13.7841 54.0094 14.4287 54.0094 15.0734C54.0094 16.3627 53.9908 17.652 54.0653 18.9413C54.0839 19.4532 54.2514 19.9841 54.5306 20.4202C54.7168 20.7235 54.9774 20.9511 55.2566 21.0648C55.5359 21.1976 55.8337 21.2355 56.1316 21.2355C56.3549 21.2355 56.5783 21.2165 56.8017 21.1786C57.1926 21.1217 57.5091 20.97 57.7697 20.7235C58.0303 20.4771 58.2165 20.1737 58.3282 19.7945C58.4399 19.4153 58.5143 19.0171 58.5143 18.619C58.5329 15.5284 58.5143 12.4569 58.5329 9.36636C58.5329 8.77859 58.6074 8.17187 58.7563 7.60306C58.8866 7.05321 59.1472 6.61713 59.4823 6.2948C59.836 5.97248 60.2828 5.74495 60.8412 5.63119C61.2135 5.53639 61.6045 5.49847 61.9768 5.49847C62.4235 5.49847 62.8517 5.55535 63.2798 5.68807C63.8755 5.85872 64.3223 6.16208 64.6388 6.56024C64.9552 6.95841 65.16 7.47034 65.2531 8.07706C65.3275 8.49419 65.3462 8.93028 65.3462 9.36636C65.3462 14.9217 65.3462 20.4771 65.3462 26.0324C65.3462 31.493 65.3462 36.9346 65.3462 42.3951C65.3462 42.7933 65.3089 43.1914 65.2531 43.5896C65.16 44.3291 64.8994 44.9168 64.4712 45.3529C64.0617 45.789 63.4846 46.0544 62.7586 46.1492C62.4794 46.1872 62.2002 46.2061 61.9023 46.2061C61.5672 46.2061 61.2135 46.1872 60.8971 46.1303C60.2269 46.0165 59.7057 45.7321 59.3148 45.2771C58.9239 44.822 58.6819 44.2153 58.5888 43.4569C58.5329 43.0398 58.5143 42.6226 58.5143 42.2055C58.4957 39.2667 58.5143 36.3278 58.4957 33.37C58.4957 32.9908 58.4585 32.6116 58.3282 32.2514C58.1979 31.8911 57.9931 31.5688 57.658 31.3034C57.2485 30.981 56.7831 30.8294 56.3177 30.8294C55.964 30.8294 55.6103 30.9052 55.2566 31.0379C55.0519 31.1138 54.8657 31.2275 54.7168 31.3602C54.4934 31.5688 54.3445 31.8153 54.2514 32.0807C54.1583 32.3462 54.1025 32.6306 54.0466 32.915C53.9908 33.3321 53.9908 33.7492 53.9908 34.1664C53.9908 34.5456 53.9908 34.9058 53.9908 35.285C53.9908 36.4985 53.9908 37.7119 53.9908 38.9443C53.9908 40.2336 53.9908 41.5419 53.9722 42.8312C53.9722 43.4569 53.8605 43.9688 53.7116 44.4049C53.4696 45.0495 53.0786 45.5046 52.5574 45.789C52.0548 46.0924 51.4033 46.2251 50.6773 46.2251C50.4539 46.2251 50.2305 46.2061 50.0071 46.1872C49.5417 46.1303 49.1508 46.0355 48.8157 45.8838C48.3131 45.6563 47.9222 45.315 47.6616 44.8599C47.401 44.4049 47.2334 43.8171 47.2148 43.1156C47.1962 42.6985 47.1962 42.3003 47.1962 41.8832C47.1962 41.6367 47.1962 41.3902 47.1962 41.1627V41.1437C47.1962 38.5272 47.1962 35.9107 47.1962 33.2942C47.1962 30.8104 47.1962 28.3456 47.1962 25.8618H46.8239C46.8239 28.3456 46.8239 30.8104 46.8239 33.2942C46.8239 35.9107 46.8239 38.5272 46.8239 41.1437V41.1627C46.8239 41.4092 46.8239 41.6557 46.8239 41.8832C46.8239 42.3003 46.8239 42.7174 46.8425 43.1346C46.8611 43.6275 46.9542 44.0826 47.0845 44.4807C47.2893 45.0875 47.643 45.5615 48.127 45.9217C48.611 46.263 49.2253 46.4905 49.9699 46.5664C50.2119 46.5853 50.4539 46.6043 50.6773 46.6043C51.1985 46.6043 51.6825 46.5474 52.1106 46.3957C52.7622 46.1872 53.3206 45.789 53.7116 45.2012C54.1025 44.6135 54.3073 43.8361 54.3259 42.8502C54.3445 41.5609 54.3445 40.2526 54.3445 38.9633C54.3445 37.7498 54.3445 36.5364 54.3445 35.304C54.3445 34.9248 54.3445 34.5645 54.3445 34.1853C54.3445 33.7682 54.3445 33.37 54.4003 32.9719C54.4562 32.6116 54.5306 32.2703 54.6796 32.0049C54.754 31.8722 54.8471 31.7394 54.9588 31.6446C55.0705 31.5498 55.2008 31.455 55.3869 31.3982C55.7034 31.2844 56.0199 31.2086 56.3177 31.2086C56.7086 31.2086 57.0809 31.3223 57.4532 31.6067C57.7325 31.8343 57.9 32.0997 58.0117 32.4031C58.1234 32.7064 58.1606 33.0477 58.1606 33.408C58.1792 36.3468 58.1792 39.2856 58.1792 42.2434C58.1792 42.6795 58.1979 43.0966 58.2537 43.5327C58.3468 44.348 58.626 45.0306 59.0542 45.5425C59.5009 46.0544 60.1152 46.3957 60.8599 46.5095C61.2135 46.5664 61.5672 46.5853 61.9209 46.5853C62.2188 46.5853 62.5166 46.5664 62.8145 46.5284C63.6149 46.4336 64.2665 46.1303 64.7505 45.6373C65.2345 45.1443 65.5323 44.4618 65.6254 43.6654C65.6812 43.2483 65.7185 42.8312 65.7185 42.4141C65.7185 36.9535 65.7185 31.5119 65.7185 26.0514C65.7185 20.496 65.7185 14.9407 65.7185 9.38532C65.7185 8.94924 65.6812 8.49419 65.6254 8.03914C65.5137 7.37554 65.2903 6.80673 64.9366 6.35168C64.5643 5.89664 64.0617 5.55535 63.3915 5.36575C62.9262 5.23303 62.4608 5.15719 61.9954 5.15719C61.5859 5.15719 61.1949 5.21407 60.7854 5.28991C60.1897 5.42263 59.6685 5.66911 59.2775 6.04832C58.868 6.42752 58.5888 6.92049 58.4399 7.52722C58.2909 8.13395 58.2165 8.75963 58.2165 9.36636C58.1979 12.4569 58.1979 15.5474 58.1979 18.619C58.1979 18.9792 58.142 19.3394 58.0303 19.6997C57.9372 20.022 57.7883 20.2685 57.5836 20.4581C57.3788 20.6477 57.1182 20.7804 56.8017 20.8183C56.5969 20.8563 56.3736 20.8752 56.1874 20.8752C55.9268 20.8752 55.6662 20.8373 55.4614 20.7425C55.238 20.6477 55.0519 20.496 54.9029 20.2306C54.6796 19.8514 54.512 19.3584 54.4934 18.9223C54.4189 17.652 54.4376 16.3627 54.4376 15.0734C54.4376 14.4287 54.4376 13.7841 54.4376 13.1395C54.4376 12.9688 54.4376 12.7982 54.4376 12.6275C54.4376 11.2813 54.4376 9.91621 54.4003 8.57003C54.3817 7.69786 54.1397 6.92049 53.6743 6.35168C53.209 5.78287 52.5574 5.38471 51.7383 5.25199C51.4219 5.19511 51.1054 5.17615 50.7703 5.17615C50.3422 5.17615 49.8954 5.21407 49.4859 5.28991C48.8716 5.38471 48.3503 5.63119 47.9594 6.0104C47.5499 6.3896 47.2707 6.90153 47.1217 7.50826C46.9728 8.11498 46.917 8.74067 46.917 9.3474C46.917 12.3621 46.8983 15.3578 46.8983 18.3725C46.8983 20.8563 46.8983 23.3401 46.8983 25.8239H47.01Z" fill="black"/>
<path d="M91.2587 25.8239C91.2587 20.3254 91.2587 14.8459 91.2773 9.3474C91.2773 8.72171 91.3704 8.07706 91.5193 7.47034C91.8544 6.21896 92.7479 5.59327 93.9579 5.38471C94.3116 5.32783 94.6839 5.30887 95.0376 5.30887C97.8485 5.30887 100.641 5.30887 103.452 5.30887C103.899 5.30887 104.345 5.34679 104.773 5.44159C105.965 5.68807 106.784 6.40856 107.026 7.62202C107.38 9.38532 107.398 11.1865 107.026 12.9309C106.709 14.4477 105.63 15.2061 103.898 15.282C102.8 15.3199 101.702 15.3009 100.585 15.3009C100.343 15.3009 100.12 15.3009 99.8776 15.3199C99.0027 15.3768 98.4442 15.9076 98.4256 16.8177C98.407 18.126 98.407 19.4532 98.4256 20.7615C98.4442 21.6905 99.0213 22.2593 99.9893 22.2783C101.255 22.2972 102.521 22.2783 103.805 22.2972C104.122 22.2972 104.438 22.3352 104.755 22.392C105.611 22.5248 106.17 23.0177 106.356 23.8709C106.654 25.2361 106.654 26.6202 106.374 28.0043C106.207 28.8575 105.648 29.3694 104.792 29.4642C104.122 29.5401 103.433 29.578 102.744 29.578C101.814 29.5969 100.883 29.578 99.9334 29.5969C99.0027 29.6159 98.4256 30.1658 98.407 31.0948C98.3884 32.422 98.3884 33.7492 98.407 35.0954C98.4256 35.9865 98.9468 36.5554 99.8404 36.5933C101.255 36.6502 102.689 36.6122 104.103 36.6691C105.109 36.707 106.076 37.0104 106.598 37.9584C106.877 38.4703 107.1 39.096 107.119 39.6648C107.193 40.9352 107.193 42.2245 107.082 43.4758C106.914 45.3529 105.76 46.3957 103.917 46.4147C100.771 46.4526 97.6438 46.4526 94.4978 46.4147C92.5245 46.3957 91.3518 45.1823 91.2215 43.1346C91.2029 42.8502 91.2029 42.5658 91.2029 42.2813C91.2587 36.7829 91.2587 31.3034 91.2587 25.8239Z" fill="#FF1F08"/>
<path d="M91.2587 25.8239H91.4262C91.4262 23.3211 91.4262 20.7994 91.4262 18.2966C91.4262 15.3199 91.4262 12.3431 91.4449 9.3474C91.4449 8.74067 91.5379 8.09602 91.6869 7.50826C91.8358 6.92049 92.1336 6.4844 92.5245 6.18104C92.9155 5.85872 93.4181 5.66911 93.9951 5.57431C94.3302 5.51743 94.7025 5.49847 95.0562 5.49847C96.471 5.49847 97.8858 5.49847 99.3005 5.49847C100.697 5.49847 102.074 5.49847 103.47 5.49847C103.898 5.49847 104.345 5.53639 104.773 5.63119C105.35 5.74495 105.816 5.97248 106.17 6.31376C106.523 6.65505 106.765 7.09113 106.877 7.65994C107.044 8.53211 107.138 9.42324 107.138 10.3144C107.138 11.1865 107.044 12.0398 106.877 12.893C106.802 13.2532 106.691 13.5755 106.523 13.841C106.281 14.2391 105.946 14.5425 105.518 14.7511C105.09 14.9596 104.55 15.0734 103.917 15.1113C103.433 15.1303 102.949 15.1303 102.447 15.1303C101.925 15.1303 101.404 15.1303 100.883 15.1303C100.79 15.1303 100.697 15.1303 100.604 15.1303C100.362 15.1303 100.12 15.1303 99.8776 15.1492C99.6356 15.1682 99.4308 15.2061 99.2261 15.282C98.9282 15.3957 98.6862 15.6043 98.5187 15.8697C98.3511 16.1352 98.2581 16.4575 98.2581 16.8177C98.2394 17.4813 98.2394 18.1639 98.2394 18.8465C98.2394 19.4911 98.2394 20.1358 98.2581 20.7804C98.2581 21.0269 98.3139 21.2734 98.3884 21.463C98.5187 21.7664 98.7234 22.0318 99.0027 22.2024C99.2819 22.3731 99.617 22.4679 100.008 22.4679C100.604 22.4869 101.181 22.4869 101.776 22.4869C102.093 22.4869 102.409 22.4869 102.707 22.4869C103.079 22.4869 103.452 22.4869 103.805 22.4869C104.103 22.4869 104.42 22.5248 104.736 22.5817C105.127 22.6385 105.444 22.7902 105.686 23.0177C105.928 23.2453 106.095 23.5297 106.188 23.9278C106.337 24.6104 106.412 25.293 106.412 25.9755C106.412 26.6391 106.337 27.3028 106.207 27.9853C106.132 28.3835 105.965 28.6869 105.723 28.9144C105.481 29.1229 105.164 29.2746 104.773 29.3125C104.103 29.3884 103.433 29.4263 102.744 29.4263C102.409 29.4263 102.056 29.4453 101.721 29.4453C101.385 29.4453 101.05 29.4453 100.715 29.4453C100.455 29.4453 100.194 29.4453 99.9334 29.4453C99.6914 29.4453 99.4494 29.4832 99.2447 29.559C98.9282 29.6728 98.6862 29.8624 98.5001 30.1468C98.3325 30.4122 98.2394 30.7535 98.2208 31.1138C98.2022 31.7774 98.2022 32.422 98.2022 33.0856C98.2022 33.7682 98.2022 34.4318 98.2208 35.1144C98.2208 35.3609 98.2581 35.5884 98.3325 35.778C98.4442 36.0813 98.6304 36.3278 98.891 36.4985C99.1516 36.6691 99.4681 36.7639 99.8217 36.7829C101.255 36.8398 102.67 36.8018 104.085 36.8587C104.569 36.8777 105.034 36.9725 105.444 37.1431C105.853 37.3327 106.188 37.6171 106.43 38.0532C106.709 38.5462 106.914 39.1339 106.933 39.6838C106.97 40.2716 106.989 40.8783 106.989 41.485C106.989 42.1486 106.97 42.8122 106.896 43.4758C106.858 43.9309 106.747 44.3291 106.598 44.6703C106.374 45.1823 106.021 45.5615 105.574 45.8269C105.127 46.0924 104.569 46.244 103.88 46.244C102.298 46.263 100.697 46.263 99.1144 46.263C97.5693 46.263 96.0056 46.263 94.4605 46.244C93.9765 46.244 93.567 46.1682 93.1947 46.0165C92.6362 45.808 92.2081 45.4477 91.9102 44.9737C91.5938 44.4997 91.4076 43.874 91.3704 43.1346C91.3518 42.8691 91.3518 42.5847 91.3518 42.3003C91.3518 38.7737 91.3518 35.2661 91.3518 31.7394C91.3518 29.7865 91.3518 27.8336 91.3518 25.8618H91.0725C91.0725 27.8147 91.0725 29.7676 91.0725 31.7394C91.0725 35.2661 91.0725 38.7737 91.0725 42.3003C91.0725 42.5847 91.0725 42.8691 91.0912 43.1535C91.1284 43.6844 91.2215 44.1584 91.389 44.5755C91.631 45.2012 92.0405 45.7132 92.5804 46.0544C93.1202 46.3957 93.7718 46.5853 94.535 46.5853C96.0801 46.6043 97.6437 46.6043 99.1888 46.6043C100.771 46.6043 102.372 46.6043 103.954 46.5853C104.438 46.5853 104.867 46.5095 105.257 46.3768C105.853 46.1682 106.318 45.8269 106.672 45.3339C107.026 44.841 107.231 44.2342 107.286 43.4948C107.342 42.8122 107.38 42.1486 107.38 41.4661C107.38 40.8593 107.361 40.2526 107.324 39.6459C107.286 39.0202 107.082 38.3945 106.765 37.8447C106.486 37.3327 106.076 36.9914 105.611 36.7829C105.146 36.5743 104.643 36.4795 104.122 36.4606C102.689 36.4037 101.274 36.4416 99.859 36.3847C99.6542 36.3847 99.4681 36.3468 99.3191 36.271C99.0957 36.1761 98.9096 36.0245 98.7979 35.8349C98.6676 35.6263 98.6117 35.3798 98.5931 35.0765C98.5745 34.3939 98.5745 33.7303 98.5745 33.0477C98.5745 32.4031 98.5745 31.7395 98.5931 31.0948C98.5931 30.8862 98.6304 30.6966 98.7048 30.526C98.7979 30.2795 98.9468 30.1089 99.1516 29.9761C99.3564 29.8434 99.617 29.7676 99.9521 29.7676C100.213 29.7676 100.473 29.7676 100.734 29.7676C101.069 29.7676 101.404 29.7676 101.739 29.7676C102.074 29.7676 102.428 29.7676 102.763 29.7486C103.452 29.7297 104.14 29.7107 104.829 29.6159C105.276 29.559 105.667 29.3884 105.965 29.1229C106.263 28.8575 106.467 28.4593 106.561 28.0043C106.691 27.3217 106.765 26.6202 106.765 25.9376C106.765 25.2361 106.691 24.5156 106.542 23.8141C106.449 23.359 106.244 22.9988 105.946 22.7144C105.648 22.4489 105.257 22.2783 104.811 22.2024C104.494 22.1456 104.159 22.1076 103.824 22.1076C103.452 22.1076 103.079 22.1076 102.726 22.1076C102.409 22.1076 102.093 22.1076 101.795 22.1076C101.199 22.1076 100.622 22.1076 100.027 22.0887C99.8031 22.0887 99.5984 22.0508 99.4308 21.9939C99.1702 21.8991 98.9841 21.7474 98.8537 21.5388C98.7234 21.3303 98.649 21.0648 98.6304 20.7425C98.6117 20.0979 98.6117 19.4532 98.6117 18.8086C98.6117 18.145 98.6117 17.4624 98.6304 16.7988C98.6304 16.5902 98.6676 16.4196 98.7234 16.2489C98.8165 16.0214 98.9654 15.8318 99.1516 15.6991C99.3564 15.5664 99.5984 15.4905 99.8962 15.4716C100.12 15.4526 100.362 15.4526 100.604 15.4526C100.697 15.4526 100.79 15.4526 100.883 15.4526C101.404 15.4526 101.925 15.4526 102.447 15.4526C102.931 15.4526 103.433 15.4526 103.917 15.4336C104.792 15.3957 105.537 15.1872 106.114 14.77C106.393 14.5615 106.635 14.296 106.821 13.9927C107.007 13.6893 107.138 13.3291 107.231 12.9309C107.417 12.0587 107.491 11.1676 107.491 10.2765C107.491 9.36636 107.398 8.45627 107.212 7.54618C107.082 6.92049 106.802 6.3896 106.393 6.0104C105.983 5.61223 105.444 5.36575 104.829 5.23303C104.382 5.13823 103.917 5.10031 103.47 5.10031C102.074 5.10031 100.697 5.10031 99.3005 5.10031C97.8858 5.10031 96.471 5.10031 95.0562 5.10031C94.6839 5.10031 94.3116 5.11927 93.9393 5.17615C93.3064 5.28991 92.7479 5.49847 92.3012 5.85872C91.8544 6.21896 91.5193 6.73089 91.3518 7.37554C91.1842 8.00122 91.1098 8.66483 91.0912 9.30948C91.0725 12.2862 91.0725 15.263 91.0725 18.2587C91.0725 20.7615 91.0725 23.2832 91.0725 25.7859H91.2587V25.8239Z" fill="black"/>
<path d="M74.7097 25.8239C74.7097 20.3633 74.7097 14.9028 74.7283 9.4422C74.7283 8.79755 74.8027 8.13394 74.9517 7.50826C75.2681 6.23792 76.1803 5.59327 77.4089 5.40367C77.7626 5.34679 78.1349 5.32783 78.4886 5.32783C81.2995 5.32783 84.0918 5.30887 86.9027 5.32783C87.4426 5.32783 88.001 5.38471 88.5036 5.53639C89.8253 5.9156 90.6258 7.07217 90.6444 8.58899C90.663 9.66972 90.663 10.7315 90.6444 11.8122C90.6072 13.9737 89.4344 15.2061 87.2936 15.282C86.1209 15.3199 84.9481 15.3009 83.7753 15.3009C83.5147 15.3009 83.2355 15.3009 82.9935 15.3578C82.3792 15.4905 81.951 15.8887 81.9324 16.5144C81.8952 18.0312 81.8766 19.548 81.9324 21.0459C81.9696 21.7853 82.5839 22.2404 83.4589 22.2593C84.5944 22.2783 85.7486 22.2593 86.8841 22.2783C87.2936 22.2783 87.7218 22.2972 88.1313 22.3731C89.1179 22.5248 89.695 23.1315 89.8625 24.1174C90.0673 25.3309 90.0673 26.5443 89.8625 27.7578C89.695 28.7627 89.1924 29.2936 88.2058 29.4453C87.7218 29.5211 87.2378 29.559 86.7538 29.559C85.6182 29.578 84.4641 29.559 83.3286 29.578C82.5467 29.5969 82.0255 30.0709 81.9138 30.8483C81.8766 31.1138 81.858 31.3792 81.858 31.6446C81.858 35.4367 81.8579 39.2287 81.8207 43.0208C81.8021 44.6514 81.0575 45.789 79.7358 46.1492C79.047 46.3388 78.2838 46.3957 77.595 46.3199C75.7521 46.0924 74.8214 45.0116 74.7283 43.1156C74.7097 42.6605 74.691 42.2055 74.691 41.7505C74.7097 36.4606 74.7097 31.1327 74.7097 25.8239Z" fill="#FF1F08"/>
<path d="M74.7097 25.8239H74.8772C74.8772 23.3021 74.8772 20.7615 74.8772 18.2398C74.8772 15.3009 74.8772 12.3621 74.8958 9.42324C74.8958 8.79755 74.9703 8.13394 75.1192 7.54618C75.2681 6.93945 75.566 6.50336 75.9569 6.18104C76.3478 5.85872 76.8504 5.65015 77.4461 5.55535C77.7812 5.49847 78.1535 5.47951 78.5072 5.47951C79.9592 5.47951 81.4112 5.47951 82.8818 5.47951C84.2221 5.47951 85.581 5.47951 86.9213 5.49847C87.4426 5.49847 87.9824 5.55535 88.485 5.68807C89.0993 5.85872 89.6019 6.21896 89.937 6.71193C90.2907 7.20489 90.4769 7.84954 90.4955 8.57003C90.5141 9.13884 90.5141 9.72661 90.5141 10.2954C90.5141 10.7884 90.5141 11.2813 90.4955 11.7933C90.4955 12.3242 90.4024 12.7792 90.2721 13.1774C90.0673 13.7841 89.7136 14.2391 89.2296 14.5615C88.7456 14.8838 88.1127 15.0734 87.3309 15.1113C86.8469 15.1303 86.3629 15.1303 85.8789 15.1303C85.339 15.1303 84.7992 15.1303 84.2593 15.1303C84.1104 15.1303 83.9615 15.1303 83.8126 15.1303C83.5519 15.1303 83.2727 15.1303 82.9935 15.2061C82.6584 15.282 82.3606 15.4336 82.1558 15.6612C81.9324 15.8887 81.8021 16.192 81.8021 16.5333C81.7835 17.2917 81.7649 18.0691 81.7649 18.8275C81.7649 19.5859 81.7835 20.3254 81.8021 21.0838C81.8021 21.2924 81.858 21.482 81.951 21.6526C82.0813 21.918 82.3047 22.1076 82.5653 22.2404C82.826 22.3731 83.1424 22.4489 83.4961 22.4489C83.9429 22.4489 84.3896 22.4679 84.8364 22.4679C85.2273 22.4679 85.6369 22.4679 86.0278 22.4679C86.3256 22.4679 86.6235 22.4679 86.9399 22.4679C87.3495 22.4679 87.759 22.4869 88.1685 22.5437C88.6339 22.6196 88.9876 22.7902 89.2482 23.0557C89.5089 23.3211 89.6764 23.6813 89.7509 24.1364C89.8439 24.7431 89.8998 25.3498 89.8998 25.9566C89.8998 26.5443 89.8439 27.1132 89.7509 27.7009C89.7136 27.9474 89.6578 28.137 89.5647 28.3266C89.453 28.592 89.2855 28.7817 89.0621 28.9333C88.8387 29.085 88.5781 29.1988 88.2244 29.2557C87.759 29.3315 87.275 29.3694 86.791 29.3694C86.307 29.3694 85.8416 29.3694 85.3576 29.3694C85.1343 29.3694 84.9295 29.3694 84.7061 29.3694C84.2593 29.3694 83.8126 29.3694 83.3658 29.3694C82.9376 29.3694 82.5653 29.5021 82.2861 29.7676C82.0069 30.0141 81.8393 30.3743 81.7649 30.8104C81.7276 31.0758 81.709 31.3602 81.709 31.6446C81.709 35.4367 81.709 39.2287 81.6718 43.0208C81.6718 43.7982 81.4856 44.4618 81.1506 44.9547C80.8155 45.4477 80.3315 45.808 79.7172 45.9786C79.2518 46.1113 78.7492 46.1682 78.2466 46.1682C78.0418 46.1682 77.837 46.1492 77.6509 46.1303C77.2041 46.0734 76.8132 45.9786 76.4967 45.8269C76.0127 45.5994 75.6404 45.2581 75.3798 44.822C75.1192 44.367 74.9703 43.7982 74.933 43.1156C74.9144 42.6605 74.8958 42.2245 74.8958 41.7694C74.8958 38.6599 74.8958 35.5694 74.8958 32.4599C74.8958 30.2416 74.8958 28.0232 74.8958 25.8049H74.5235C74.5235 28.0232 74.5235 30.2416 74.5235 32.4599C74.5235 35.5694 74.5235 38.6599 74.5235 41.7694C74.5235 42.2245 74.5421 42.6795 74.5607 43.1346C74.5794 43.6275 74.6724 44.0636 74.8027 44.4428C75.0075 45.0306 75.3426 45.5046 75.808 45.8459C76.2734 46.1872 76.869 46.3957 77.595 46.4905C77.7998 46.5095 78.0232 46.5284 78.2466 46.5284C78.7678 46.5284 79.3077 46.4526 79.8103 46.3199C80.499 46.1303 81.0761 45.7321 81.4484 45.1633C81.8207 44.5945 82.0255 43.874 82.0255 43.0208C82.0627 39.2287 82.0441 35.4367 82.0627 31.6446C82.0627 31.3792 82.0813 31.1138 82.1186 30.8673C82.1744 30.507 82.3047 30.2416 82.5095 30.052C82.7143 29.8624 82.9935 29.7486 83.3658 29.7486C83.8126 29.7486 84.2593 29.7486 84.7061 29.7486C84.9295 29.7486 85.1343 29.7486 85.3576 29.7486C85.8416 29.7486 86.3256 29.7486 86.791 29.7486C87.275 29.7486 87.7776 29.7107 88.2802 29.6349C88.5409 29.5969 88.7642 29.5211 88.969 29.4263C89.2855 29.2746 89.5275 29.0661 89.7136 28.8006C89.8998 28.5162 90.0115 28.1939 90.0859 27.7957C90.179 27.189 90.2349 26.6012 90.2349 25.9945C90.2349 25.3688 90.179 24.7431 90.0859 24.0985C89.9929 23.5676 89.8067 23.1315 89.4716 22.8092C89.1552 22.4869 88.727 22.2783 88.2058 22.2024C87.7776 22.1266 87.3495 22.1266 86.9399 22.1076C86.6421 22.1076 86.3442 22.1076 86.0278 22.1076C85.6369 22.1076 85.2273 22.1076 84.8364 22.1076C84.3896 22.1076 83.9429 22.1076 83.4961 22.0887C83.0866 22.0887 82.7515 21.9749 82.5281 21.7853C82.4164 21.6905 82.3233 21.5957 82.2489 21.463C82.193 21.3492 82.1558 21.1976 82.1372 21.0459C82.1 20.3064 82.1 19.548 82.1 18.8086C82.1 18.0502 82.1186 17.2917 82.1372 16.5144C82.1372 16.2489 82.2303 16.0404 82.3978 15.8697C82.5467 15.6991 82.7887 15.5853 83.0493 15.5284C83.2913 15.4716 83.5333 15.4716 83.7939 15.4716C83.9429 15.4716 84.0918 15.4716 84.2407 15.4716C84.7806 15.4716 85.3204 15.4716 85.8603 15.4716C86.3443 15.4716 86.8282 15.4716 87.3309 15.4526C87.8707 15.4336 88.3733 15.3388 88.8015 15.1682C89.453 14.9217 89.9556 14.4856 90.3093 13.9168C90.663 13.348 90.8305 12.6275 90.8492 11.7933C90.8492 11.3003 90.8678 10.7884 90.8678 10.2954C90.8678 9.70765 90.8678 9.13884 90.8492 8.55107C90.8305 7.75474 90.6258 7.05321 90.2349 6.4844C89.8439 5.9156 89.2855 5.51743 88.5781 5.30887C88.0382 5.15719 87.4612 5.10031 86.9213 5.10031C85.5624 5.10031 84.2221 5.08135 82.8632 5.08135C81.4112 5.08135 79.9592 5.08135 78.4886 5.08135C78.1163 5.08135 77.744 5.10031 77.3717 5.15719C76.7387 5.27095 76.1617 5.47951 75.7149 5.85872C75.2681 6.21896 74.9331 6.74985 74.7655 7.41346C74.598 8.0581 74.5421 8.72171 74.5421 9.38532C74.5421 12.3242 74.5235 15.263 74.5235 18.2018C74.5235 20.7235 74.5235 23.2642 74.5235 25.7859H74.7097V25.8239Z" fill="black"/>
<path d="M21.1347 30.0141C21.1347 34.1474 21.1347 38.2807 21.1347 42.4141C21.1347 42.9639 21.0789 43.5138 20.9486 44.0447C20.6135 45.4098 19.72 46.1492 18.361 46.3388C17.393 46.4716 16.4437 46.4336 15.5501 45.9596C14.4332 45.3719 14.1167 44.2911 13.9864 43.1346C13.9492 42.8312 13.9678 42.5468 13.9678 42.2434C13.9678 33.9957 13.9678 25.748 13.9678 17.5003C13.9678 17.3107 13.9678 17.1021 13.9678 16.9125C13.912 15.8887 13.4094 15.3768 12.3855 15.3388C11.5292 15.3009 10.6543 15.3388 9.79799 15.263C8.06676 15.0924 7.06153 14.1064 6.96846 12.3431C6.894 10.9211 6.91261 9.48012 7.04292 8.0581C7.17323 6.56024 8.2343 5.57431 9.70491 5.40367C10.0958 5.36575 10.4868 5.32783 10.8777 5.32783C15.4012 5.32783 19.9247 5.32783 24.4483 5.32783C25.2859 5.32783 26.105 5.40367 26.831 5.87768C27.7432 6.44648 28.1527 7.35658 28.1899 8.38043C28.2458 9.80245 28.2644 11.2434 28.1341 12.6654C28.0038 14.2012 26.9986 15.0924 25.4907 15.263C24.8206 15.3388 24.1504 15.3199 23.4803 15.3388C23.2196 15.3388 22.959 15.3388 22.6798 15.3578C21.7863 15.3957 21.265 15.8887 21.1906 16.7988C21.172 17.0073 21.172 17.2159 21.172 17.4434C21.1347 21.5957 21.1347 25.8049 21.1347 30.0141Z" fill="#FF1F08"/>
<path d="M21.1347 30.0141H20.9486C20.9486 31.9859 20.9486 33.9388 20.9486 35.9107C20.9486 38.0722 20.9486 40.2526 20.93 42.4141C20.93 42.945 20.8741 43.4948 20.7624 44.0067C20.6135 44.6514 20.3157 45.1443 19.9061 45.5046C19.4966 45.8648 18.9753 46.0734 18.3238 46.1682C18.026 46.2061 17.7281 46.244 17.4303 46.244C16.7974 46.244 16.183 46.1303 15.606 45.8269C15.0847 45.5425 14.7497 45.1633 14.5263 44.7083C14.3029 44.2532 14.1912 43.7223 14.1354 43.1346C14.1167 42.9639 14.1167 42.7933 14.1167 42.6037C14.1167 42.4899 14.1167 42.3761 14.1167 42.2624C14.1167 34.0147 14.1167 25.767 14.1167 17.5193C14.1167 17.4813 14.1167 17.4434 14.1167 17.4055C14.1167 17.2538 14.1167 17.0832 14.0981 16.9315C14.0795 16.6661 14.0423 16.4196 13.9678 16.192C13.8561 15.8697 13.6514 15.6043 13.3721 15.4336C13.0929 15.263 12.7578 15.1682 12.3483 15.1682C11.4734 15.1303 10.6171 15.1682 9.76076 15.0924C9.3326 15.0544 8.97891 14.9596 8.64384 14.8269C8.15984 14.6183 7.78753 14.315 7.52692 13.8979C7.2663 13.4807 7.11738 12.9688 7.08015 12.3242C7.04292 11.7933 7.04292 11.2624 7.04292 10.7315C7.04292 9.84037 7.08015 8.94923 7.15461 8.07706C7.21046 7.37554 7.48969 6.78777 7.93645 6.37064C8.36461 5.95352 8.9603 5.66911 9.66768 5.59327C10.0586 5.55535 10.4309 5.51743 10.8218 5.51743C13.3907 5.51743 15.941 5.51743 18.51 5.51743C20.4646 5.51743 22.4378 5.51743 24.3924 5.51743C24.8019 5.51743 25.2115 5.53639 25.5838 5.61223C25.9747 5.68807 26.3284 5.8208 26.6635 6.02936C27.0916 6.2948 27.3895 6.63609 27.6129 7.03425C27.8176 7.43242 27.9293 7.88746 27.9479 8.38043C27.9666 9.02508 27.9852 9.66972 27.9852 10.2954C27.9852 11.0728 27.9666 11.8502 27.8921 12.6275C27.8176 13.367 27.557 13.9168 27.1475 14.315C26.7193 14.7132 26.1423 14.9786 25.4163 15.0544C24.7647 15.1303 24.0946 15.1113 23.4244 15.1303C23.1638 15.1303 22.9032 15.1303 22.624 15.1492C22.382 15.1682 22.1586 15.2061 21.9724 15.282C21.6746 15.3957 21.4326 15.5853 21.265 15.8318C21.0975 16.0783 21.0044 16.4006 20.9672 16.7609C20.9486 16.9315 20.9486 17.0832 20.9486 17.2538C20.9486 17.3107 20.9486 17.3676 20.9486 17.4055C20.9486 20.3064 20.9486 23.2073 20.9486 26.1083C20.9486 27.4165 20.9486 28.7058 20.9486 30.0141H21.1347H21.3023C21.3023 28.7058 21.3023 27.4165 21.3023 26.1083C21.3023 23.2073 21.3023 20.3064 21.3023 17.4055C21.3023 17.3486 21.3023 17.2917 21.3023 17.2538C21.3023 17.1021 21.3023 16.9505 21.3209 16.7988C21.3395 16.5902 21.3767 16.4006 21.4512 16.2489C21.5443 16.0214 21.6932 15.8508 21.8793 15.718C22.0655 15.6043 22.3261 15.5284 22.6426 15.5095C22.9032 15.4905 23.1638 15.5095 23.443 15.4905C24.1132 15.4716 24.7833 15.4905 25.4535 15.4147C26.2353 15.3388 26.9055 15.0544 27.3895 14.5804C27.8735 14.1064 28.1713 13.4618 28.2458 12.6654C28.3202 11.8881 28.3389 11.0917 28.3389 10.2954C28.3389 9.65076 28.3202 9.00612 28.3016 8.36147C28.283 7.83058 28.1713 7.31865 27.9293 6.86361C27.6873 6.40856 27.3336 6.0104 26.8682 5.70703C26.4773 5.46055 26.0678 5.32783 25.6583 5.23303C25.2487 5.15719 24.8206 5.13823 24.3924 5.13823C22.4378 5.13823 20.4646 5.13823 18.51 5.13823C15.941 5.13823 13.3907 5.13823 10.8218 5.13823C10.4309 5.13823 10.0214 5.15719 9.63045 5.21407C8.86722 5.30887 8.17845 5.59327 7.69445 6.08624C7.19184 6.5792 6.87538 7.24281 6.81953 8.02018C6.74507 8.91131 6.70784 9.80245 6.70784 10.7125C6.70784 11.2434 6.72646 11.7933 6.74507 12.3242C6.76369 12.7792 6.85676 13.1963 6.98707 13.5566C7.19184 14.1064 7.54553 14.5425 8.01091 14.8459C8.4763 15.1492 9.05337 15.3388 9.72353 15.3957C10.5984 15.4716 11.4734 15.4526 12.3297 15.4716C12.5717 15.4716 12.7764 15.5095 12.944 15.5853C13.2046 15.6801 13.3721 15.8318 13.5024 16.0404C13.6327 16.2489 13.7072 16.5333 13.7258 16.8936C13.7258 17.0453 13.7258 17.1969 13.7258 17.3486C13.7258 17.3865 13.7258 17.4245 13.7258 17.4624C13.7258 25.7101 13.7258 33.9578 13.7258 42.2055C13.7258 42.3193 13.7258 42.433 13.7258 42.5468C13.7258 42.7364 13.7258 42.926 13.7444 43.1156C13.8003 43.7034 13.9306 44.2911 14.1726 44.8031C14.4146 45.315 14.8055 45.77 15.4012 46.0924C16.0341 46.4336 16.7043 46.5664 17.393 46.5664C17.7095 46.5664 18.0074 46.5474 18.3238 46.4905C19.0312 46.3957 19.6269 46.1492 20.0923 45.7511C20.5577 45.3529 20.8927 44.7841 21.0603 44.0636C21.1906 43.5138 21.2464 42.945 21.2464 42.3761C21.2464 40.2147 21.265 38.0343 21.265 35.8728C21.265 33.9009 21.265 31.948 21.265 29.9761H21.1347V30.0141Z" fill="black"/>
<path d="M140.813 29.9951C140.813 34.1095 140.813 38.2239 140.813 42.3572C140.813 42.7933 140.794 43.2294 140.72 43.6654C140.422 45.296 139.584 46.1113 137.965 46.3388C137.015 46.4716 136.103 46.4147 135.228 45.9596C134.093 45.3529 133.776 44.2722 133.646 43.0966C133.609 42.8122 133.627 42.5278 133.627 42.2434C133.627 33.9768 133.627 25.7101 133.627 17.4434C133.627 17.2538 133.627 17.0832 133.627 16.8936C133.571 15.8508 133.069 15.3388 132.045 15.3009C131.189 15.263 130.314 15.3009 129.457 15.2251C127.708 15.0544 126.721 14.0875 126.609 12.3052C126.535 10.8832 126.553 9.4422 126.684 8.02018C126.814 6.52232 127.875 5.53639 129.346 5.36575C129.699 5.32783 130.072 5.28991 130.425 5.28991C134.967 5.28991 139.491 5.28991 144.033 5.28991C144.461 5.28991 144.908 5.30887 145.318 5.40367C146.825 5.72599 147.663 6.59817 147.793 8.34251C147.905 9.76453 147.887 11.2055 147.756 12.6275C147.607 14.1823 146.621 15.0734 145.076 15.2251C144.424 15.282 143.773 15.282 143.121 15.3009C142.86 15.3009 142.6 15.3009 142.321 15.3199C141.408 15.3578 140.906 15.8508 140.813 16.7609C140.794 16.9694 140.794 17.178 140.794 17.4055C140.813 21.5957 140.813 25.8049 140.813 29.9951Z" fill="#FF1F08"/>
<path d="M140.813 29.9951H140.627C140.627 31.8343 140.627 33.6734 140.627 35.4936C140.627 37.7688 140.627 40.063 140.627 42.3382C140.627 42.7743 140.608 43.2104 140.533 43.6086C140.459 44.0067 140.366 44.348 140.217 44.6324C140.012 45.0685 139.733 45.3908 139.361 45.6373C138.988 45.8838 138.523 46.0544 137.927 46.1303C137.648 46.1682 137.369 46.1872 137.108 46.1872C136.475 46.1872 135.88 46.0734 135.303 45.7511C134.763 45.4667 134.428 45.0875 134.204 44.6135C133.981 44.1584 133.869 43.6086 133.813 43.0208C133.795 42.8502 133.795 42.6985 133.795 42.5278C133.795 42.4141 133.795 42.3193 133.795 42.2055C133.795 33.9388 133.795 25.6722 133.795 17.4055V17.3297C133.795 17.178 133.795 17.0073 133.795 16.8557C133.776 16.5902 133.739 16.3437 133.664 16.1162C133.553 15.7939 133.348 15.5284 133.069 15.3578C132.79 15.1872 132.454 15.0924 132.045 15.0924C131.17 15.0544 130.314 15.0924 129.457 15.0165C129.029 14.9786 128.657 14.8838 128.34 14.7511C127.856 14.5425 127.484 14.2391 127.224 13.841C126.963 13.4239 126.814 12.9119 126.777 12.2673C126.74 11.7364 126.74 11.2055 126.74 10.6557C126.74 9.76453 126.777 8.89235 126.851 8.02018C126.907 7.29969 127.186 6.73089 127.614 6.31376C128.043 5.89664 128.638 5.61223 129.346 5.53639C129.699 5.49847 130.053 5.46055 130.407 5.46055C132.641 5.46055 134.874 5.46055 137.108 5.46055C139.417 5.46055 141.725 5.46055 144.015 5.46055C144.443 5.46055 144.871 5.47951 145.262 5.55535C145.634 5.63119 145.951 5.74495 146.23 5.87768C146.639 6.08624 146.956 6.3896 147.179 6.78777C147.403 7.18593 147.551 7.6789 147.607 8.32355C147.663 8.93028 147.682 9.537 147.682 10.1437C147.682 10.959 147.645 11.7743 147.57 12.5706C147.496 13.3101 147.235 13.8789 146.807 14.2771C146.379 14.6752 145.783 14.9217 145.038 14.9976C144.405 15.0544 143.754 15.0544 143.084 15.0734C142.823 15.0734 142.563 15.0734 142.283 15.0924C142.041 15.1113 141.818 15.1492 141.632 15.2251C141.334 15.3388 141.092 15.5284 140.924 15.7749C140.757 16.0214 140.664 16.3437 140.627 16.704C140.608 16.8746 140.608 17.0263 140.608 17.178C140.608 17.2349 140.608 17.2917 140.608 17.3486C140.608 19.9651 140.608 22.5627 140.608 25.1792C140.608 26.7719 140.608 28.3645 140.608 29.9572H140.98C140.98 28.3645 140.98 26.7719 140.98 25.1792C140.98 22.5627 140.98 19.9651 140.98 17.3486C140.98 17.2917 140.98 17.2349 140.98 17.178C140.98 17.0263 140.98 16.8746 140.999 16.7419C141.017 16.5333 141.073 16.3437 141.129 16.192C141.222 15.9645 141.371 15.7939 141.557 15.6801C141.743 15.5664 142.004 15.4905 142.321 15.4716C142.581 15.4526 142.842 15.4716 143.121 15.4526C143.773 15.4336 144.424 15.4526 145.094 15.3768C145.895 15.3009 146.565 15.0165 147.067 14.5615C147.57 14.0875 147.868 13.4428 147.942 12.6275C148.017 11.8122 148.054 10.978 148.054 10.1627C148.054 9.55596 148.035 8.93028 147.98 8.32355C147.942 7.8685 147.868 7.47034 147.738 7.12905C147.551 6.59817 147.254 6.18104 146.844 5.87768C146.435 5.57431 145.951 5.36575 145.355 5.23303C144.908 5.13823 144.461 5.11927 144.033 5.11927C141.725 5.11927 139.417 5.11927 137.127 5.11927C134.893 5.11927 132.659 5.11927 130.425 5.11927C130.053 5.11927 129.681 5.13823 129.327 5.19511C128.564 5.28991 127.894 5.59327 127.391 6.06728C126.888 6.56024 126.572 7.22385 126.516 8.00122C126.442 8.89235 126.404 9.78349 126.404 10.6746C126.404 11.2245 126.423 11.7554 126.442 12.3052C126.46 12.7602 126.553 13.1774 126.702 13.5376C126.907 14.0875 127.261 14.5235 127.726 14.8269C128.192 15.1303 128.769 15.3199 129.439 15.3768C130.314 15.4526 131.189 15.4147 132.045 15.4526C132.287 15.4526 132.492 15.4905 132.659 15.5664C132.92 15.6612 133.087 15.8128 133.218 16.0214C133.348 16.23 133.422 16.5144 133.441 16.8746C133.441 17.0263 133.441 17.178 133.441 17.3297C133.441 17.3486 133.441 17.3865 133.441 17.4055C133.441 25.6722 133.441 33.9388 133.441 42.2055C133.441 42.3193 133.441 42.4141 133.441 42.5278C133.441 42.6985 133.441 42.8881 133.46 43.0587C133.516 43.6654 133.627 44.2532 133.888 44.7651C134.13 45.296 134.539 45.7511 135.135 46.0544C135.768 46.3957 136.438 46.5284 137.108 46.5284C137.406 46.5284 137.685 46.5095 137.983 46.4526C138.393 46.3957 138.765 46.3009 139.1 46.1492C139.584 45.9407 139.994 45.6183 140.291 45.2012C140.589 44.7841 140.775 44.2532 140.887 43.6275C140.962 43.1914 140.98 42.7364 140.98 42.2813C140.98 40.0061 140.98 37.7119 140.98 35.4367C140.98 33.5976 140.98 31.7584 140.98 29.9382H140.813V29.9951Z" fill="black"/>
<path d="M154.365 7.9633H141.39C140.143 7.9633 139.137 6.93945 139.137 5.66911V4.96758C139.137 3.69725 140.161 2.67339 141.39 2.67339H154.346C155.593 2.67339 156.599 3.69725 156.599 4.96758V5.66911C156.617 6.92049 155.593 7.9633 154.365 7.9633Z" fill="black"/>
<path d="M154.365 7.9633V7.83058H141.39C140.813 7.83058 140.273 7.5841 139.882 7.20489C139.491 6.80673 139.249 6.27584 139.249 5.66911V4.96758C139.249 4.37982 139.491 3.82997 139.882 3.45076C140.273 3.0526 140.794 2.82508 141.39 2.82508H154.346C154.923 2.82508 155.463 3.07156 155.854 3.45076C156.245 3.84893 156.487 4.37982 156.487 4.96758V5.66911C156.487 6.25688 156.245 6.80673 155.854 7.20489C155.463 7.60306 154.942 7.83058 154.346 7.83058V7.9633V8.09602C155.668 8.09602 156.747 6.99633 156.747 5.66911V4.96758C156.747 3.62141 155.668 2.54067 154.346 2.54067H141.39C140.068 2.54067 138.988 3.64037 138.988 4.96758V5.66911C138.988 7.01529 140.068 8.09602 141.39 8.09602H154.346V7.9633H154.365Z" fill="#FF1F08"/>
<path d="M32.432 56.5766L32.843 56.5857C33.2362 56.5857 33.5698 56.5038 33.8438 56.34C34.1178 56.1701 34.3323 55.8758 34.4871 55.4572C34.1178 55.6271 33.7127 55.712 33.2719 55.712C32.6822 55.712 32.1997 55.5573 31.8244 55.2479C31.4491 54.9324 31.2615 54.4986 31.2615 53.9464C31.2615 53.3943 31.4104 52.9362 31.7082 52.5722C32.2741 51.8805 33.1707 51.5347 34.3978 51.5347C35.5892 51.5347 36.4916 51.8381 37.1052 52.4448C37.3196 52.6572 37.4894 52.9271 37.6145 53.2548C37.7456 53.5824 37.8111 53.9707 37.8111 54.4197C37.8111 54.8687 37.7247 55.3055 37.552 55.7302C37.3852 56.1489 37.1231 56.5402 36.7657 56.9042C36.4082 57.2622 35.9138 57.5534 35.2824 57.7779C34.6509 58.0024 33.9093 58.1298 33.0575 58.1602H32.9324C32.7775 58.1602 32.5928 58.1511 32.3784 58.1329C32.1699 58.1207 32.0061 58.0176 31.8869 57.8234C31.7738 57.6293 31.7172 57.4139 31.7172 57.1773C31.7172 56.9346 31.7797 56.7738 31.9048 56.6949C32.0359 56.616 32.2116 56.5766 32.432 56.5766ZM33.8885 53.6279C33.8885 53.8585 33.9331 54.0526 34.0225 54.2104C34.1119 54.3681 34.231 54.447 34.3799 54.447C34.5288 54.4409 34.642 54.3651 34.7195 54.2195C34.7969 54.0678 34.8356 53.8736 34.8356 53.637C34.8356 53.4004 34.788 53.2123 34.6926 53.0728C34.6033 52.9271 34.4931 52.8543 34.362 52.8543C34.2369 52.8543 34.1267 52.9271 34.0314 53.0728C33.9361 53.2123 33.8885 53.3974 33.8885 53.6279Z" fill="black"/>
<path d="M45.3897 54.6836C45.0383 54.6836 44.8626 54.9809 44.8626 55.5755C44.8626 56.164 45.0383 56.4583 45.3897 56.4583C45.5267 56.4583 45.6489 56.4128 45.7561 56.3218C45.8693 56.2247 45.9259 56.0912 45.9259 55.9213V55.2206C45.9259 55.0507 45.8693 54.9202 45.7561 54.8292C45.6489 54.7322 45.5267 54.6836 45.3897 54.6836ZM48.3384 57.9053L47.3913 57.9235C47.0458 57.9235 46.8134 57.9175 46.6943 57.9053C46.325 57.8811 46.1403 57.6687 46.1403 57.2683C45.9199 57.5231 45.634 57.7294 45.2825 57.8871C44.937 58.0449 44.6183 58.1238 44.3264 58.1238C43.7307 58.1238 43.2393 57.9235 42.8521 57.5231C42.4709 57.1227 42.2802 56.5038 42.2802 55.6665C42.2802 54.623 42.6287 53.8949 43.3257 53.4823C43.695 53.2578 44.1269 53.1456 44.6213 53.1456C45.1157 53.1456 45.5357 53.2578 45.8812 53.4823C45.9944 53.5612 46.0569 53.5369 46.0688 53.4095C46.0807 53.276 46.0867 53.0819 46.0867 52.827V52.0717C46.0867 51.9503 46.0897 51.829 46.0956 51.7076C46.1016 51.5802 46.1373 51.4771 46.2029 51.3982C46.2684 51.3132 46.4024 51.2708 46.6049 51.2708H48.3205C48.5171 51.2708 48.6482 51.3193 48.7137 51.4164C48.7852 51.5135 48.8239 51.6621 48.8299 51.8623C48.8477 52.7239 48.8567 53.6036 48.8567 54.5016C48.8567 54.5016 48.8507 55.4936 48.8388 57.4776C48.8388 57.5989 48.7822 57.7021 48.669 57.787C48.5618 57.8659 48.4516 57.9053 48.3384 57.9053Z" fill="black"/>
<path d="M51.0742 53.5733C51.3482 53.4338 51.6282 53.3336 51.9141 53.273C52.206 53.2123 52.5634 53.182 52.9863 53.182C53.4152 53.182 53.8233 53.2366 54.2105 53.3458C54.5977 53.4489 54.8866 53.5915 55.0772 53.7735C55.4108 54.1072 55.5776 54.4986 55.5776 54.9475C55.5776 55.6513 54.9938 56.0033 53.8263 56.0033C53.4152 56.0033 52.9893 55.9638 52.5485 55.8849C52.5664 56.2854 52.6379 56.5675 52.7629 56.7313C52.894 56.8951 53.1233 56.9771 53.451 56.9771C53.7786 56.9771 54.0496 56.9407 54.2641 56.8678C54.4785 56.795 54.6513 56.7222 54.7823 56.6494C54.9134 56.5705 55.0236 56.5311 55.1129 56.5311C55.2083 56.5311 55.2887 56.5736 55.3542 56.6585C55.4555 56.7677 55.5061 56.9194 55.5061 57.1136C55.5061 57.3017 55.4674 57.4321 55.3899 57.5049C55.3185 57.5716 55.2023 57.6384 55.0415 57.7051C54.4756 57.9478 53.6714 58.0692 52.6289 58.0692C51.7652 58.0692 51.0533 57.8598 50.4934 57.4412C49.9394 57.0165 49.6624 56.4462 49.6624 55.7302C49.6624 55.3844 49.7249 55.0689 49.85 54.7837C49.9751 54.4925 50.1419 54.2528 50.3504 54.0648C50.5589 53.8706 50.8001 53.7068 51.0742 53.5733ZM53.1472 54.2195C52.7838 54.2195 52.5872 54.5198 52.5574 55.1205C52.8434 55.1447 52.9923 55.1569 53.0042 55.1569C53.3974 55.1569 53.5939 55.0234 53.5939 54.7564C53.5939 54.3985 53.445 54.2195 53.1472 54.2195Z" fill="black"/>
<path d="M62.9812 54.6836C62.6298 54.6836 62.454 54.9809 62.454 55.5755C62.454 56.164 62.6298 56.4583 62.9812 56.4583C63.1182 56.4583 63.2404 56.4128 63.3476 56.3218C63.4608 56.2247 63.5174 56.0912 63.5174 55.9213V55.2206C63.5174 55.0507 63.4608 54.9202 63.3476 54.8292C63.2404 54.7322 63.1182 54.6836 62.9812 54.6836ZM65.9299 57.9053L64.9828 57.9235C64.6373 57.9235 64.4049 57.9175 64.2858 57.9053C63.9165 57.8811 63.7318 57.6687 63.7318 57.2683C63.5114 57.5231 63.2255 57.7294 62.874 57.8871C62.5285 58.0449 62.2098 58.1238 61.9179 58.1238C61.3222 58.1238 60.8308 57.9235 60.4436 57.5231C60.0624 57.1227 59.8717 56.5038 59.8717 55.6665C59.8717 54.623 60.2202 53.8949 60.9172 53.4823C61.2865 53.2578 61.7184 53.1456 62.2128 53.1456C62.7072 53.1456 63.1272 53.2578 63.4727 53.4823C63.5859 53.5612 63.6484 53.5369 63.6603 53.4095C63.6722 53.276 63.6782 53.0819 63.6782 52.827V52.0717C63.6782 51.9503 63.6812 51.829 63.6871 51.7076C63.6931 51.5802 63.7288 51.4771 63.7944 51.3982C63.8599 51.3132 63.9939 51.2708 64.1964 51.2708H65.912C66.1086 51.2708 66.2397 51.3193 66.3052 51.4164C66.3767 51.5135 66.4154 51.6621 66.4213 51.8623C66.4392 52.7239 66.4482 53.6036 66.4482 54.5016C66.4482 54.5016 66.4422 55.4936 66.4303 57.4776C66.4303 57.5989 66.3737 57.7021 66.2605 57.787C66.1533 57.8659 66.0431 57.9053 65.9299 57.9053Z" fill="black"/>
<path d="M68.0044 53.3185H69.7468C69.9494 53.3185 70.0834 53.364 70.1489 53.455C70.2204 53.546 70.2651 53.7493 70.283 54.0648C70.3068 54.3742 70.3187 54.9445 70.3187 55.7757C70.3187 56.6009 70.3008 57.1833 70.2651 57.5231C70.2472 57.6263 70.1966 57.7173 70.1132 57.7961C70.0298 57.875 69.8809 57.9205 69.6664 57.9327C69.4579 57.9509 69.2077 57.9599 68.9158 57.9599C68.624 57.9599 68.3589 57.9509 68.1206 57.9327C67.8823 57.9205 67.7215 57.875 67.6381 57.7961C67.5547 57.7173 67.507 57.6263 67.4951 57.5231C67.4534 57.1287 67.4326 56.525 67.4326 55.712C67.4326 54.8929 67.4445 54.3348 67.4683 54.0375C67.4921 53.7402 67.5368 53.546 67.6023 53.455C67.6679 53.364 67.8019 53.3185 68.0044 53.3185ZM68.9695 51.1707C69.3626 51.1707 69.6575 51.2526 69.8541 51.4164C70.0566 51.5741 70.1579 51.7926 70.1579 52.0717C70.1579 52.7269 69.729 53.0546 68.8712 53.0546C68.5257 53.0546 68.2308 52.9787 67.9866 52.827C67.7423 52.6754 67.6202 52.4478 67.6202 52.1445C67.6202 51.4953 68.07 51.1707 68.9695 51.1707Z" fill="black"/>
<path d="M75.147 54.6017C74.867 54.6017 74.6585 54.6958 74.5215 54.8838C74.3845 55.0719 74.316 55.3055 74.316 55.5846C74.316 55.8637 74.3964 56.1034 74.5573 56.3036C74.7181 56.5038 74.9772 56.6039 75.3346 56.6039C75.4478 56.6039 75.6146 56.5736 75.835 56.5129C76.0554 56.4522 76.2103 56.4219 76.2997 56.4219C76.5082 56.4219 76.6184 56.6251 76.6303 57.0317C76.6303 57.2076 76.6184 57.3714 76.5945 57.5231C76.5767 57.6748 76.4665 57.784 76.2639 57.8507C75.6682 58.0388 75.1411 58.1329 74.6824 58.1329C74.2296 58.1329 73.8573 58.1147 73.5654 58.0783C73.2795 58.0479 72.9876 57.9812 72.6898 57.878C72.3979 57.7749 72.1537 57.6384 71.9571 57.4685C71.7665 57.2986 71.6086 57.0711 71.4835 56.7859C71.3644 56.4947 71.3048 56.1307 71.3048 55.6938C71.3048 55.2509 71.3971 54.8565 71.5818 54.5107C71.7724 54.1649 72.0315 53.9009 72.3592 53.7189C72.9787 53.3792 73.7531 53.2093 74.6824 53.2093C75.1827 53.2093 75.6921 53.2912 76.2103 53.455C76.4307 53.5278 76.5409 53.7735 76.5409 54.1922C76.5409 54.6047 76.4367 54.811 76.2282 54.811C76.1388 54.811 75.975 54.7777 75.7367 54.7109C75.5044 54.6381 75.3078 54.6017 75.147 54.6017Z" fill="black"/>
<path d="M78.0044 53.3185H79.7468C79.9493 53.3185 80.0833 53.364 80.1488 53.455C80.2203 53.546 80.265 53.7493 80.2829 54.0648C80.3067 54.3742 80.3186 54.9445 80.3186 55.7757C80.3186 56.6009 80.3008 57.1833 80.265 57.5231C80.2471 57.6263 80.1965 57.7173 80.1131 57.7961C80.0297 57.875 79.8808 57.9205 79.6663 57.9327C79.4579 57.9509 79.2077 57.9599 78.9158 57.9599C78.6239 57.9599 78.3588 57.9509 78.1205 57.9327C77.8822 57.9205 77.7214 57.875 77.638 57.7961C77.5546 57.7173 77.507 57.6263 77.4951 57.5231C77.4534 57.1287 77.4325 56.525 77.4325 55.712C77.4325 54.8929 77.4444 54.3348 77.4682 54.0375C77.4921 53.7402 77.5368 53.546 77.6023 53.455C77.6678 53.364 77.8018 53.3185 78.0044 53.3185ZM78.9694 51.1707C79.3625 51.1707 79.6574 51.2526 79.854 51.4164C80.0565 51.5741 80.1578 51.7926 80.1578 52.0717C80.1578 52.7269 79.7289 53.0546 78.8711 53.0546C78.5256 53.0546 78.2307 52.9787 77.9865 52.827C77.7423 52.6754 77.6201 52.4478 77.6201 52.1445C77.6201 51.4953 78.0699 51.1707 78.9694 51.1707Z" fill="black"/>
<path d="M82.6272 53.5733C82.9012 53.4338 83.1812 53.3336 83.4671 53.273C83.759 53.2123 84.1164 53.182 84.5393 53.182C84.9682 53.182 85.3763 53.2366 85.7635 53.3458C86.1507 53.4489 86.4396 53.5915 86.6302 53.7735C86.9638 54.1072 87.1306 54.4986 87.1306 54.9475C87.1306 55.6513 86.5468 56.0033 85.3792 56.0033C84.9682 56.0033 84.5423 55.9638 84.1015 55.8849C84.1194 56.2854 84.1908 56.5675 84.3159 56.7313C84.447 56.8951 84.6763 56.9771 85.004 56.9771C85.3316 56.9771 85.6026 56.9407 85.8171 56.8678C86.0315 56.795 86.2043 56.7222 86.3353 56.6494C86.4664 56.5705 86.5766 56.5311 86.6659 56.5311C86.7613 56.5311 86.8417 56.5736 86.9072 56.6585C87.0085 56.7677 87.0591 56.9194 87.0591 57.1136C87.0591 57.3017 87.0204 57.4321 86.9429 57.5049C86.8715 57.5716 86.7553 57.6384 86.5945 57.7051C86.0285 57.9478 85.2244 58.0692 84.1819 58.0692C83.3182 58.0692 82.6063 57.8598 82.0464 57.4412C81.4924 57.0165 81.2154 56.4462 81.2154 55.7302C81.2154 55.3844 81.2779 55.0689 81.403 54.7837C81.5281 54.4925 81.6949 54.2528 81.9034 54.0648C82.1119 53.8706 82.3531 53.7068 82.6272 53.5733ZM84.7002 54.2195C84.3368 54.2195 84.1402 54.5198 84.1104 55.1205C84.3964 55.1447 84.5453 55.1569 84.5572 55.1569C84.9503 55.1569 85.1469 55.0234 85.1469 54.7564C85.1469 54.3985 84.998 54.2195 84.7002 54.2195Z" fill="black"/>
<path d="M95.6745 57.5322L95.6834 55.3116C95.6834 55.1296 95.6387 54.9931 95.5494 54.902C95.46 54.811 95.3468 54.7655 95.2098 54.7655C95.0788 54.7655 94.9567 54.8141 94.8435 54.9111C94.7363 55.0022 94.6826 55.1326 94.6826 55.3025L94.6916 56.6221C94.6916 57.0408 94.6886 57.329 94.6826 57.4867C94.6767 57.6445 94.635 57.7597 94.5575 57.8325C94.4861 57.8993 94.3431 57.9327 94.1286 57.9327L92.4131 57.9509C92.2224 57.9509 92.0884 57.9175 92.011 57.8507C91.9395 57.7779 91.9037 57.6718 91.9037 57.5322L91.9127 55.3116C91.9127 55.1296 91.868 54.9931 91.7786 54.902C91.6893 54.811 91.5761 54.7655 91.4391 54.7655C91.3081 54.7655 91.1859 54.8141 91.0727 54.9111C90.9655 55.0022 90.9119 55.1326 90.9119 55.3025V55.8576C90.9119 56.6585 90.894 57.2046 90.8583 57.4958C90.8404 57.5989 90.7898 57.69 90.7064 57.7688C90.623 57.8477 90.4741 57.8962 90.2596 57.9144C90.0511 57.9266 89.8427 57.9327 89.6342 57.9327C89.4257 57.9327 89.0712 57.9205 88.5708 57.8962C88.4279 57.8902 88.3147 57.8477 88.2313 57.7688C88.1479 57.69 88.1003 57.5989 88.0883 57.4958C88.0466 57.1014 88.0258 56.4977 88.0258 55.6847C88.0258 54.8717 88.0377 54.3166 88.0615 54.0193C88.0854 53.7159 88.13 53.5187 88.1956 53.4277C88.2611 53.3367 88.3951 53.2912 88.5977 53.2912H90.34C90.5426 53.2912 90.6766 53.3367 90.7421 53.4277C90.8136 53.5187 90.8583 53.6734 90.8762 53.8918V53.9009C91.3349 53.4156 91.9186 53.1729 92.6275 53.1729C93.0624 53.1729 93.4406 53.2578 93.7623 53.4277C94.084 53.5976 94.3222 53.8463 94.4771 54.174C94.6737 53.8463 94.9418 53.5976 95.2813 53.4277C95.6268 53.2578 95.9991 53.1729 96.3982 53.1729C97.0058 53.1729 97.4973 53.3367 97.8726 53.6643C98.2478 53.992 98.4385 54.444 98.4444 55.0204C98.4563 55.5967 98.4623 56.1125 98.4623 56.5675C98.4623 57.0226 98.4593 57.329 98.4534 57.4867C98.4474 57.6445 98.4057 57.7597 98.3283 57.8325C98.2568 57.8993 98.1138 57.9327 97.8994 57.9327L96.1838 57.9509C95.9932 57.9509 95.8591 57.9175 95.7817 57.8507C95.7102 57.7779 95.6745 57.6718 95.6745 57.5322Z" fill="black"/>
<path d="M102.826 56.5402C103.177 56.5402 103.353 56.2459 103.353 55.6574C103.353 55.0628 103.177 54.7655 102.826 54.7655C102.689 54.7655 102.564 54.8141 102.45 54.9111C102.343 55.0022 102.289 55.1326 102.289 55.3025V56.0033C102.289 56.1731 102.343 56.3066 102.45 56.4037C102.564 56.4947 102.689 56.5402 102.826 56.5402ZM99.4659 57.4958L99.448 54.5198C99.448 53.6097 99.457 52.7239 99.4749 51.8623C99.4808 51.6621 99.5166 51.5135 99.5821 51.4164C99.6536 51.3193 99.7876 51.2708 99.9842 51.2708H101.7C101.896 51.2708 102.027 51.3193 102.093 51.4164C102.164 51.5074 102.209 51.7107 102.227 52.0262C102.251 52.3417 102.263 52.8998 102.263 53.7007C102.263 53.7371 102.272 53.7675 102.289 53.7917C102.307 53.8099 102.334 53.8039 102.37 53.7735C102.787 53.3731 103.29 53.1729 103.88 53.1729C104.476 53.1729 104.958 53.367 105.328 53.7553C105.703 54.1376 105.89 54.7625 105.89 55.6301C105.89 56.4917 105.703 57.1105 105.328 57.4867C104.952 57.8568 104.461 58.0419 103.853 58.0419C102.96 58.0419 102.394 57.8325 102.155 57.4139C102.149 57.5716 102.093 57.693 101.986 57.7779C101.878 57.8629 101.759 57.9114 101.628 57.9235C101.497 57.9357 101.259 57.9418 100.913 57.9418L99.9663 57.9235C99.8531 57.9235 99.7399 57.8841 99.6268 57.8052C99.5195 57.7203 99.4659 57.6171 99.4659 57.4958Z" fill="black"/>
<path d="M107.271 53.2912H109.014C109.216 53.2912 109.356 53.3367 109.434 53.4277C109.511 53.5126 109.55 53.6431 109.55 53.819V54.1467C109.883 53.5035 110.425 53.182 111.176 53.182C111.426 53.182 111.632 53.2639 111.792 53.4277C111.953 53.5915 112.034 53.8099 112.034 54.083C112.034 54.356 111.962 54.629 111.819 54.902C111.676 55.169 111.477 55.3025 111.221 55.3025C111.101 55.3025 110.935 55.2418 110.72 55.1205C110.506 54.9931 110.333 54.9293 110.202 54.9293C110.071 54.9293 109.934 54.9779 109.791 55.075C109.654 55.172 109.585 55.3328 109.585 55.5573C109.585 56.5341 109.568 57.1803 109.532 57.4958C109.514 57.5989 109.463 57.69 109.38 57.7688C109.297 57.8477 109.148 57.8962 108.933 57.9144C108.725 57.9266 108.516 57.9327 108.308 57.9327C108.099 57.9327 107.745 57.9205 107.244 57.8962C107.101 57.8902 106.988 57.8477 106.905 57.7688C106.821 57.69 106.774 57.5989 106.762 57.4958C106.72 57.1014 106.699 56.4977 106.699 55.6847C106.699 54.8717 106.711 54.3166 106.735 54.0193C106.759 53.7159 106.804 53.5187 106.869 53.4277C106.935 53.3367 107.069 53.2912 107.271 53.2912Z" fill="black"/>
<path d="M113.805 53.5733C114.079 53.4338 114.359 53.3336 114.645 53.273C114.937 53.2123 115.294 53.182 115.717 53.182C116.146 53.182 116.554 53.2366 116.941 53.3458C117.328 53.4489 117.617 53.5915 117.808 53.7735C118.142 54.1072 118.308 54.4986 118.308 54.9475C118.308 55.6513 117.725 56.0033 116.557 56.0033C116.146 56.0033 115.72 55.9638 115.279 55.8849C115.297 56.2854 115.369 56.5675 115.494 56.7313C115.625 56.8951 115.854 56.9771 116.182 56.9771C116.509 56.9771 116.78 56.9407 116.995 56.8678C117.209 56.795 117.382 56.7222 117.513 56.6494C117.644 56.5705 117.754 56.5311 117.844 56.5311C117.939 56.5311 118.019 56.5736 118.085 56.6585C118.186 56.7677 118.237 56.9194 118.237 57.1136C118.237 57.3017 118.198 57.4321 118.121 57.5049C118.049 57.5716 117.933 57.6384 117.772 57.7051C117.206 57.9478 116.402 58.0692 115.36 58.0692C114.496 58.0692 113.784 57.8598 113.224 57.4412C112.67 57.0165 112.393 56.4462 112.393 55.7302C112.393 55.3844 112.456 55.0689 112.581 54.7837C112.706 54.4925 112.873 54.2528 113.081 54.0648C113.29 53.8706 113.531 53.7068 113.805 53.5733ZM115.878 54.2195C115.515 54.2195 115.318 54.5198 115.288 55.1205C115.574 55.1447 115.723 55.1569 115.735 55.1569C116.128 55.1569 116.325 55.0234 116.325 54.7564C116.325 54.3985 116.176 54.2195 115.878 54.2195Z" fill="black"/>
<path d="M141.007 6.56707L140.967 6.31679C140.961 6.28949 140.958 6.26219 140.958 6.23489C140.958 6.13478 140.997 6.0559 141.074 5.99826C141.381 5.77377 141.653 5.53412 141.892 5.27929C142.133 5.02446 142.254 4.81211 142.254 4.64223C142.254 4.52391 142.216 4.42835 142.142 4.35555C142.067 4.27971 141.982 4.24179 141.887 4.24179C141.67 4.24179 141.464 4.32976 141.271 4.50571C141.241 4.53605 141.205 4.54667 141.163 4.53757C141.032 4.51026 140.967 4.36313 140.967 4.09617C140.967 4.00516 140.986 3.93387 141.025 3.8823C141.067 3.83073 141.135 3.78067 141.23 3.73213C141.609 3.54405 142.041 3.45001 142.526 3.45001C143.015 3.45001 143.378 3.53646 143.616 3.70938C143.854 3.87927 143.974 4.0992 143.974 4.3692C143.974 4.63919 143.904 4.8743 143.764 5.07452C143.627 5.27474 143.414 5.49316 143.125 5.72979C143.062 5.77832 143.031 5.82383 143.031 5.8663C143.031 5.91787 143.073 5.94366 143.156 5.94366C143.162 5.94366 143.168 5.94366 143.174 5.94366L144.143 5.9027C144.146 5.9027 144.149 5.9027 144.152 5.9027C144.203 5.9027 144.243 5.93607 144.273 6.00281C144.303 6.06652 144.318 6.16208 144.318 6.28949C144.318 6.41387 144.297 6.51853 144.255 6.60347C144.213 6.68538 144.13 6.72785 144.005 6.73089C143.564 6.73999 143.129 6.74454 142.7 6.74454C142.274 6.74454 141.933 6.7415 141.677 6.73544C141.421 6.72937 141.278 6.72634 141.248 6.72634C141.221 6.7233 141.186 6.71724 141.141 6.70813C141.099 6.69903 141.068 6.68387 141.047 6.66263C141.029 6.63836 141.016 6.60651 141.007 6.56707Z" fill="#FFFF1D"/>
<path d="M146.049 5.13368C146.049 5.34603 146.08 5.5326 146.143 5.69338C146.208 5.85417 146.296 5.93456 146.407 5.93456C146.52 5.93456 146.608 5.85417 146.67 5.69338C146.736 5.5326 146.768 5.34603 146.768 5.13368C146.768 4.92132 146.736 4.7393 146.67 4.58762C146.608 4.43594 146.52 4.3601 146.407 4.3601C146.296 4.3601 146.208 4.43594 146.143 4.58762C146.08 4.73627 146.049 4.91829 146.049 5.13368ZM147.193 6.68538C146.961 6.77942 146.701 6.82645 146.415 6.82645C146.13 6.82645 145.87 6.77942 145.638 6.68538C145.406 6.58831 145.217 6.45938 145.071 6.29859C144.928 6.13781 144.818 5.95883 144.74 5.76164C144.666 5.56142 144.628 5.35361 144.628 5.13823C144.628 4.92284 144.666 4.71503 144.74 4.51481C144.818 4.31459 144.928 4.13409 145.071 3.97331C145.217 3.81253 145.406 3.6836 145.638 3.58652C145.87 3.48944 146.13 3.44091 146.415 3.44091C146.701 3.44091 146.961 3.48944 147.193 3.58652C147.425 3.6836 147.613 3.81253 147.756 3.97331C147.902 4.13409 148.012 4.31459 148.086 4.51481C148.164 4.71503 148.203 4.92284 148.203 5.13823C148.203 5.35361 148.164 5.56142 148.086 5.76164C148.012 5.95883 147.902 6.13781 147.756 6.29859C147.613 6.45938 147.425 6.58831 147.193 6.68538Z" fill="#FFFF1D"/>
<path d="M148.743 6.56707L148.702 6.31679C148.696 6.28949 148.693 6.26219 148.693 6.23489C148.693 6.13478 148.732 6.0559 148.81 5.99826C149.116 5.77377 149.389 5.53412 149.627 5.27929C149.868 5.02446 149.989 4.81211 149.989 4.64223C149.989 4.52391 149.952 4.42835 149.877 4.35555C149.803 4.27971 149.718 4.24179 149.623 4.24179C149.405 4.24179 149.2 4.32976 149.006 4.50571C148.976 4.53605 148.941 4.54667 148.899 4.53757C148.768 4.51026 148.702 4.36313 148.702 4.09617C148.702 4.00516 148.722 3.93387 148.76 3.8823C148.802 3.83073 148.871 3.78067 148.966 3.73213C149.344 3.54405 149.776 3.45001 150.262 3.45001C150.75 3.45001 151.113 3.53646 151.352 3.70938C151.59 3.87927 151.709 4.0992 151.709 4.3692C151.709 4.63919 151.639 4.8743 151.499 5.07452C151.362 5.27474 151.149 5.49316 150.86 5.72979C150.798 5.77832 150.766 5.82383 150.766 5.8663C150.766 5.91787 150.808 5.94366 150.892 5.94366C150.898 5.94366 150.903 5.94366 150.909 5.94366L151.879 5.9027C151.882 5.9027 151.885 5.9027 151.888 5.9027C151.938 5.9027 151.979 5.93607 152.008 6.00281C152.038 6.06652 152.053 6.16208 152.053 6.28949C152.053 6.41387 152.032 6.51853 151.991 6.60347C151.949 6.68538 151.866 6.72785 151.74 6.73089C151.3 6.73999 150.865 6.74454 150.436 6.74454C150.01 6.74454 149.669 6.7415 149.413 6.73544C149.157 6.72937 149.014 6.72634 148.984 6.72634C148.957 6.7233 148.921 6.71724 148.877 6.70813C148.835 6.69903 148.804 6.68387 148.783 6.66263C148.765 6.63836 148.752 6.60651 148.743 6.56707Z" fill="#FFFF1D"/>
<path d="M152.672 5.8936L153.235 5.91636C153.402 5.91636 153.531 5.87843 153.624 5.80259C153.68 5.75709 153.709 5.69642 153.709 5.62057C153.709 5.42642 153.594 5.32935 153.365 5.32935C153.281 5.32935 153.186 5.33996 153.079 5.3612C152.972 5.38243 152.908 5.39305 152.887 5.39305C152.759 5.39305 152.695 5.28232 152.695 5.06087C152.695 4.96683 152.711 4.90615 152.744 4.87885C152.776 4.85155 152.818 4.83486 152.869 4.8288C152.919 4.82273 152.986 4.81969 153.07 4.81969C153.153 4.81666 153.226 4.81363 153.289 4.81059C153.464 4.79542 153.587 4.76054 153.655 4.70593C153.724 4.65133 153.758 4.58155 153.758 4.49661C153.758 4.41167 153.727 4.34645 153.664 4.30094C153.604 4.25544 153.527 4.23269 153.432 4.23269C153.244 4.23269 153.053 4.31763 152.86 4.48751C152.83 4.51178 152.794 4.52391 152.753 4.52391C152.714 4.52391 152.677 4.49813 152.641 4.44656C152.587 4.37678 152.561 4.27667 152.561 4.14623C152.561 4.01578 152.58 3.92477 152.619 3.8732C152.66 3.82163 152.739 3.76702 152.855 3.70938C152.972 3.64871 153.146 3.59107 153.378 3.53646C153.61 3.47883 153.829 3.45001 154.035 3.45001C154.243 3.45001 154.416 3.46366 154.553 3.49096C154.69 3.51523 154.826 3.5577 154.96 3.61837C155.094 3.67905 155.201 3.76702 155.281 3.8823C155.365 3.99758 155.406 4.13409 155.406 4.29184C155.406 4.44656 155.366 4.58459 155.286 4.70593C155.205 4.82728 155.091 4.90919 154.942 4.95166C155.141 5.02446 155.292 5.13368 155.393 5.27929C155.494 5.42491 155.545 5.5872 155.545 5.76619C155.545 6.11202 155.411 6.37595 155.143 6.55797C154.878 6.73695 154.546 6.82645 154.147 6.82645C153.426 6.82645 152.925 6.77942 152.645 6.68538C152.511 6.63988 152.435 6.56252 152.418 6.45331C152.412 6.4169 152.409 6.36078 152.409 6.28494C152.409 6.2091 152.412 6.15298 152.418 6.11657C152.432 5.96793 152.517 5.8936 152.672 5.8936Z" fill="#FFFF1D"/>
</svg>
